<?xml version="1.0" encoding="UTF-8" standalone="no"?>
<svg
   xmlns:dc="http://purl.org/dc/elements/1.1/"
   xmlns:cc="http://creativecommons.org/ns#"
   xmlns:rdf="http://www.w3.org/1999/02/22-rdf-syntax-ns#"
   xmlns:svg="http://www.w3.org/2000/svg"
   xmlns="http://www.w3.org/2000/svg"
   xmlns:sodipodi="http://sodipodi.sourceforge.net/DTD/sodipodi-0.dtd"
   xmlns:inkscape="http://www.inkscape.org/namespaces/inkscape"
   version="1.1"
   width="410.00003"
   height="417.07434"
   id="svg2"
   inkscape:version="0.91 r13725"
   sodipodi:docname="trigonometric-functions.svg">
  <metadata
     id="metadata273">
    <rdf:RDF>
      <cc:Work
         rdf:about="">
        <dc:format>image/svg+xml</dc:format>
        <dc:type
           rdf:resource="http://purl.org/dc/dcmitype/StillImage" />
        <dc:title></dc:title>
      </cc:Work>
    </rdf:RDF>
  </metadata>
  <sodipodi:namedview
     pagecolor="#ffffff"
     bordercolor="#666666"
     borderopacity="1"
     objecttolerance="10"
     gridtolerance="10"
     guidetolerance="10"
     inkscape:pageopacity="0"
     inkscape:pageshadow="2"
     inkscape:window-width="1600"
     inkscape:window-height="847"
     id="namedview271"
     showgrid="false"
     fit-margin-top="5"
     fit-margin-left="5"
     fit-margin-right="5"
     fit-margin-bottom="5"
     inkscape:zoom="0.33006993"
     inkscape:cx="-254.97029"
     inkscape:cy="111.42654"
     inkscape:window-x="0"
     inkscape:window-y="0"
     inkscape:window-maximized="1"
     inkscape:current-layer="svg2" />
  <defs
     id="defs4">
    <clipPath
       id="oZNDTsDdaaMT">
      <path
         d="M 0,0 881,0 881,715 0,715 0,0 Z"
         id="path7"
         inkscape:connector-curvature="0"
         style="fill:none;stroke:none" />
    </clipPath>
  </defs>
  <rect
     x="-989.34741"
     y="-33.662395"
     width="881"
     height="715"
     id="rect13"
     style="fill:#ffffff;fill-opacity:1;stroke:none" />
  <path
     d="m 329.14586,248.26427 c 0,88.56635 -71.7972,160.36356 -160.36354,160.36356 -88.566346,0 -160.3635582,-71.79721 -160.3635582,-160.36356 0,-88.56634 71.7972122,-160.363551 160.3635582,-160.363551 88.56634,0 160.36354,71.797211 160.36354,160.363551 z"
     stroke-miterlimit="10"
     id="path15"
     inkscape:connector-curvature="0"
     style="fill:none;stroke:#000000;stroke-width:1.91665924;stroke-linecap:round;stroke-linejoin:round;stroke-miterlimit:10;stroke-opacity:0.69803922;paint-order:fill stroke markers" />
  <path
     d="m 268.98902,140.04697 c 0.006,4.63542 1.78937,9.09205 4.98212,12.45263"
     stroke-miterlimit="10"
     id="path17"
     inkscape:connector-curvature="0"
     style="fill:none;stroke:#000000;stroke-width:1.91665924;stroke-linecap:round;stroke-linejoin:round;stroke-miterlimit:10;stroke-opacity:0.69803922;paint-order:fill stroke markers" />
  <path
     d="m 287.09715,155.26909 c 3.51295,0.002 6.91873,-1.20978 9.6415,-3.42954"
     stroke-miterlimit="10"
     id="path19"
     inkscape:connector-curvature="0"
     style="fill:none;stroke:#000000;stroke-width:1.91665924;stroke-linecap:round;stroke-linejoin:round;stroke-miterlimit:10;stroke-opacity:0.69803922;paint-order:fill stroke markers" />
  <path
     d="m 195.71277,251.9086 c 0.12325,-6.79738 -2.43247,-13.37042 -7.11508,-18.29917"
     stroke-miterlimit="10"
     id="path21"
     inkscape:connector-curvature="0"
     style="fill:none;stroke:#000000;stroke-width:1.91665924;stroke-linecap:round;stroke-linejoin:round;stroke-miterlimit:10;stroke-opacity:0.69803922;paint-order:fill stroke markers" />
  <path
     d="m 169.82865,39.886852 c 4.90256,-4e-5 9.60773,-1.93153 13.09632,-5.37607"
     stroke-miterlimit="10"
     id="path23"
     inkscape:connector-curvature="0"
     style="fill:none;stroke:#000000;stroke-width:1.91665924;stroke-linecap:round;stroke-linejoin:round;stroke-miterlimit:10;stroke-opacity:0.69803922;paint-order:fill stroke markers" />
  <path
     d="m 169.82361,87.904099 0.0137,320.720251"
     stroke-miterlimit="10"
     id="path25"
     inkscape:connector-curvature="0"
     style="fill:none;stroke:#ffffff;stroke-width:1.91665924;stroke-linecap:round;stroke-linejoin:round;stroke-miterlimit:10;stroke-opacity:0.69803922;paint-order:fill stroke markers" />
  <path
     d="m 8.4499918,251.42872 320.6642282,0.0209"
     stroke-miterlimit="10"
     id="path27"
     inkscape:connector-curvature="0"
     style="fill:none;stroke:#ffffff;stroke-width:1.91665924;stroke-linecap:round;stroke-linejoin:round;stroke-miterlimit:10;stroke-opacity:0.69803922;paint-order:fill stroke markers" />
  <path
     d="M 169.8306,251.43927 287.10444,140.0222"
     stroke-miterlimit="10"
     id="path29"
     inkscape:connector-curvature="0"
     style="fill:none;stroke:#000000;stroke-width:1.91665924;stroke-linecap:round;stroke-linejoin:round;stroke-miterlimit:10;stroke-opacity:0.69803922;paint-order:fill stroke markers" />
  <path
     d="M 169.8306,251.43927 169.8286,21.246842"
     stroke-miterlimit="10"
     id="path31"
     inkscape:connector-curvature="0"
     style="fill:none;stroke:#ff0000;stroke-width:1.91665924;stroke-linecap:round;stroke-linejoin:round;stroke-miterlimit:10;stroke-opacity:0.69803922;paint-order:fill stroke markers" />
  <path
     d="m 169.8306,251.43927 222.83065,2.05582"
     stroke-miterlimit="10"
     id="path33"
     inkscape:connector-curvature="0"
     style="fill:none;stroke:#6699ff;stroke-width:1.91665924;stroke-linecap:round;stroke-linejoin:round;stroke-miterlimit:10;stroke-opacity:0.69803922;paint-order:fill stroke markers" />
  <path
     d="M 169.82847,21.246842 287.10444,140.0222"
     stroke-miterlimit="10"
     id="path35"
     inkscape:connector-curvature="0"
     style="fill:none;stroke:#00cc00;stroke-width:1.91665924;stroke-linecap:round;stroke-linejoin:round;stroke-miterlimit:10;stroke-opacity:0.69803922;paint-order:fill stroke markers" />
  <path
     d="M 287.10444,140.0222 392.66125,253.49509"
     stroke-miterlimit="10"
     id="path37"
     inkscape:connector-curvature="0"
     style="fill:none;stroke:#cc66ff;stroke-width:1.91665924;stroke-linecap:round;stroke-linejoin:round;stroke-miterlimit:10;stroke-opacity:0.69803922;paint-order:fill stroke markers" />
  <path
     d="M 169.8306,251.43927 8.4499918,251.42867"
     stroke-miterlimit="10"
     id="path39"
     inkscape:connector-curvature="0"
     style="fill:none;stroke:#000000;stroke-width:1.91665924;stroke-linecap:round;stroke-linejoin:round;stroke-miterlimit:10;stroke-opacity:0.69803922;paint-order:fill stroke markers" />
  <path
     d="m 169.8306,251.43927 0.007,157.18508"
     stroke-miterlimit="10"
     id="path41"
     inkscape:connector-curvature="0"
     style="fill:none;stroke:#000000;stroke-width:1.91665924;stroke-linecap:round;stroke-linejoin:round;stroke-miterlimit:10;stroke-opacity:0.69803922;paint-order:fill stroke markers" />
  <path
     d="m 287.10444,140.0222 -117.29079,0.16036"
     stroke-miterlimit="10"
     id="path43"
     inkscape:connector-curvature="0"
     style="fill:none;stroke:#996600;stroke-width:1.91665924;stroke-linecap:round;stroke-linejoin:round;stroke-miterlimit:10;stroke-opacity:0.69803922;paint-order:fill stroke markers" />
  <path
     d="m 287.10444,140.0222 -0.0538,112.66578"
     stroke-miterlimit="10"
     id="path45"
     inkscape:connector-curvature="0"
     style="fill:none;stroke:#996600;stroke-width:1.91665924;stroke-linecap:round;stroke-linejoin:round;stroke-miterlimit:10;stroke-opacity:0.69803922;paint-order:fill stroke markers" />
  <path
     d="m 172.89725,251.43927 c 0,1.69366 -1.37298,3.06666 -3.06665,3.06666 -1.69367,0 -3.06666,-1.373 -3.06666,-3.06666 0,-1.69367 1.37299,-3.06665 3.06666,-3.06665 1.69367,0 3.06665,1.37298 3.06665,3.06665 z"
     id="path47"
     inkscape:connector-curvature="0"
     style="fill:#404040;fill-opacity:1;stroke:none;paint-order:stroke fill markers" />
  <path
     d="m 172.89725,251.43927 c 0,1.69366 -1.37298,3.06666 -3.06665,3.06666 -1.69367,0 -3.06666,-1.373 -3.06666,-3.06666 0,-1.69367 1.37299,-3.06665 3.06666,-3.06665 1.69367,0 3.06665,1.37298 3.06665,3.06665 z"
     stroke-miterlimit="10"
     id="path49"
     inkscape:connector-curvature="0"
     style="fill:none;stroke:#000000;stroke-width:0.76666367;stroke-linecap:round;stroke-linejoin:round;stroke-miterlimit:10;stroke-opacity:1;paint-order:fill stroke markers" />
  <path
     d="m 290.17109,140.0222 c 0,1.69367 -1.373,3.06665 -3.06665,3.06665 -1.69367,0 -3.06666,-1.37298 -3.06666,-3.06665 0,-1.69367 1.37299,-3.06665 3.06666,-3.06665 1.69365,0 3.06665,1.37298 3.06665,3.06665 z"
     id="path51"
     inkscape:connector-curvature="0"
     style="fill:#404040;fill-opacity:1;stroke:none;paint-order:stroke fill markers" />
  <path
     d="m 290.17109,140.0222 c 0,1.69367 -1.373,3.06665 -3.06665,3.06665 -1.69367,0 -3.06666,-1.37298 -3.06666,-3.06665 0,-1.69367 1.37299,-3.06665 3.06666,-3.06665 1.69365,0 3.06665,1.37298 3.06665,3.06665 z"
     stroke-miterlimit="10"
     id="path53"
     inkscape:connector-curvature="0"
     style="fill:none;stroke:#000000;stroke-width:0.76666367;stroke-linecap:round;stroke-linejoin:round;stroke-miterlimit:10;stroke-opacity:1;paint-order:fill stroke markers" />
  <text
     font-size="16px"
     font-style="normal"
     font-weight="normal"
     text-decoration="normal"
     x="290.15018"
     y="133.92528"
     dominant-baseline="alphabetic"
     stroke-miterlimit="10"
     id="text55"
     style="font-style:normal;font-weight:normal;font-size:12.26661873px;font-family:geogebra-sans-serif, sans-serif;text-anchor:start;fill:none;stroke:#ffffff;stroke-width:2.29999113;stroke-linecap:round;stroke-linejoin:bevel;stroke-miterlimit:10;stroke-opacity:1">B</text>
  <text
     font-size="16px"
     font-style="normal"
     font-weight="normal"
     text-decoration="normal"
     x="290.15018"
     y="133.92528"
     dominant-baseline="alphabetic"
     id="text57"
     style="font-style:normal;font-weight:normal;font-size:12.26661873px;font-family:geogebra-sans-serif, sans-serif;text-anchor:start;fill:#404040;fill-opacity:1;stroke:none">B</text>
  <path
     d="m 172.89513,21.246842 c 0,1.69367 -1.37299,3.06665 -3.06666,3.06665 -1.69366,0 -3.06665,-1.37298 -3.06665,-3.06665 0,-1.69367 1.37299,-3.06665 3.06665,-3.06665 1.69367,0 3.06666,1.37298 3.06666,3.06665 z"
     id="path59"
     inkscape:connector-curvature="0"
     style="fill:#404040;fill-opacity:1;stroke:none;paint-order:stroke fill markers" />
  <path
     d="m 172.89513,21.246842 c 0,1.69367 -1.37299,3.06665 -3.06666,3.06665 -1.69366,0 -3.06665,-1.37298 -3.06665,-3.06665 0,-1.69367 1.37299,-3.06665 3.06665,-3.06665 1.69367,0 3.06666,1.37298 3.06666,3.06665 z"
     stroke-miterlimit="10"
     id="path61"
     inkscape:connector-curvature="0"
     style="fill:none;stroke:#000000;stroke-width:0.76666367;stroke-linecap:round;stroke-linejoin:round;stroke-miterlimit:10;stroke-opacity:1;paint-order:fill stroke markers" />
  <text
     font-size="16px"
     font-style="normal"
     font-weight="normal"
     text-decoration="normal"
     x="172.85066"
     y="15.092408"
     dominant-baseline="alphabetic"
     stroke-miterlimit="10"
     id="text63"
     style="font-style:normal;font-weight:normal;font-size:12.26661873px;font-family:geogebra-sans-serif, sans-serif;text-anchor:start;fill:none;stroke:#ffffff;stroke-width:2.29999113;stroke-linecap:round;stroke-linejoin:bevel;stroke-miterlimit:10;stroke-opacity:1">A</text>
  <text
     font-size="16px"
     font-style="normal"
     font-weight="normal"
     text-decoration="normal"
     x="172.85066"
     y="15.092408"
     dominant-baseline="alphabetic"
     id="text65"
     style="font-style:normal;font-weight:normal;font-size:12.26661873px;font-family:geogebra-sans-serif, sans-serif;text-anchor:start;fill:#404040;fill-opacity:1;stroke:none">A</text>
  <path
     d="m 395.72791,253.49509 c 0,1.69366 -1.37299,3.06665 -3.06666,3.06665 -1.69367,0 -3.06665,-1.37299 -3.06665,-3.06665 0,-1.69367 1.37298,-3.06666 3.06665,-3.06666 1.69367,0 3.06666,1.37299 3.06666,3.06666 z"
     id="path67"
     inkscape:connector-curvature="0"
     style="fill:#4d4dff;fill-opacity:1;stroke:none;paint-order:stroke fill markers" />
  <path
     d="m 395.72791,253.49509 c 0,1.69366 -1.37299,3.06665 -3.06666,3.06665 -1.69367,0 -3.06665,-1.37299 -3.06665,-3.06665 0,-1.69367 1.37298,-3.06666 3.06665,-3.06666 1.69367,0 3.06666,1.37299 3.06666,3.06666 z"
     stroke-miterlimit="10"
     id="path69"
     inkscape:connector-curvature="0"
     style="fill:none;stroke:#000000;stroke-width:0.76666367;stroke-linecap:round;stroke-linejoin:round;stroke-miterlimit:10;stroke-opacity:1;paint-order:fill stroke markers" />
  <path
     d="m 395.72791,253.49509 c 0,1.69366 -1.37299,3.06665 -3.06666,3.06665 -1.69367,0 -3.06665,-1.37299 -3.06665,-3.06665 0,-1.69367 1.37298,-3.06666 3.06665,-3.06666 1.69367,0 3.06666,1.37299 3.06666,3.06666 z"
     id="path71"
     inkscape:connector-curvature="0"
     style="fill:#404040;fill-opacity:1;stroke:none;paint-order:stroke fill markers" />
  <path
     d="m 395.72791,253.49509 c 0,1.69366 -1.37299,3.06665 -3.06666,3.06665 -1.69367,0 -3.06665,-1.37299 -3.06665,-3.06665 0,-1.69367 1.37298,-3.06666 3.06665,-3.06666 1.69367,0 3.06666,1.37299 3.06666,3.06666 z"
     stroke-miterlimit="10"
     id="path73"
     inkscape:connector-curvature="0"
     style="fill:none;stroke:#000000;stroke-width:0.76666367;stroke-linecap:round;stroke-linejoin:round;stroke-miterlimit:10;stroke-opacity:1;paint-order:fill stroke markers" />
  <text
     font-size="16px"
     font-style="normal"
     font-weight="normal"
     text-decoration="normal"
     x="395.9498"
     y="247.39151"
     dominant-baseline="alphabetic"
     stroke-miterlimit="10"
     id="text75"
     style="font-style:normal;font-weight:normal;font-size:12.26661873px;font-family:geogebra-sans-serif, sans-serif;text-anchor:start;fill:none;stroke:#ffffff;stroke-width:2.29999113;stroke-linecap:round;stroke-linejoin:bevel;stroke-miterlimit:10;stroke-opacity:1">C</text>
  <text
     font-size="16px"
     font-style="normal"
     font-weight="normal"
     text-decoration="normal"
     x="395.9498"
     y="247.39151"
     dominant-baseline="alphabetic"
     id="text77"
     style="font-style:normal;font-weight:normal;font-size:12.26661873px;font-family:geogebra-sans-serif, sans-serif;text-anchor:start;fill:#404040;fill-opacity:1;stroke:none">C</text>
  <path
     d="m 11.516642,251.42872 c 0,1.69367 -1.37299,3.06666 -3.0666502,3.06666 -1.69367,0 -3.06666,-1.37299 -3.06666,-3.06666 0,-1.69366 1.37299,-3.06665 3.06666,-3.06665 1.6936602,0 3.0666502,1.37299 3.0666502,3.06665 z"
     id="path79"
     inkscape:connector-curvature="0"
     style="fill:#404040;fill-opacity:1;stroke:none;paint-order:stroke fill markers" />
  <path
     d="m 11.516642,251.42872 c 0,1.69367 -1.37299,3.06666 -3.0666502,3.06666 -1.69367,0 -3.06666,-1.37299 -3.06666,-3.06666 0,-1.69366 1.37299,-3.06665 3.06666,-3.06665 1.6936602,0 3.0666502,1.37299 3.0666502,3.06665 z"
     stroke-miterlimit="10"
     id="path81"
     inkscape:connector-curvature="0"
     style="fill:none;stroke:#000000;stroke-width:0.76666367;stroke-linecap:round;stroke-linejoin:round;stroke-miterlimit:10;stroke-opacity:1;paint-order:fill stroke markers" />
  <path
     d="m 172.90397,408.62435 c 0,1.69367 -1.37299,3.06666 -3.06666,3.06666 -1.69366,0 -3.06665,-1.37299 -3.06665,-3.06666 0,-1.69366 1.37299,-3.06665 3.06665,-3.06665 1.69367,0 3.06666,1.37299 3.06666,3.06665 z"
     id="path83"
     inkscape:connector-curvature="0"
     style="fill:#404040;fill-opacity:1;stroke:none;paint-order:stroke fill markers" />
  <path
     d="m 172.90397,408.62435 c 0,1.69367 -1.37299,3.06666 -3.06666,3.06666 -1.69366,0 -3.06665,-1.37299 -3.06665,-3.06666 0,-1.69366 1.37299,-3.06665 3.06665,-3.06665 1.69367,0 3.06666,1.37299 3.06666,3.06665 z"
     stroke-miterlimit="10"
     id="path85"
     inkscape:connector-curvature="0"
     style="fill:none;stroke:#000000;stroke-width:0.76666367;stroke-linecap:round;stroke-linejoin:round;stroke-miterlimit:10;stroke-opacity:1;paint-order:fill stroke markers" />
  <path
     d="m 172.89725,251.43927 c 0,1.69366 -1.37298,3.06666 -3.06665,3.06666 -1.69367,0 -3.06666,-1.373 -3.06666,-3.06666 0,-1.69367 1.37299,-3.06665 3.06666,-3.06665 1.69367,0 3.06665,1.37298 3.06665,3.06665 z"
     id="path87"
     inkscape:connector-curvature="0"
     style="fill:#444444;fill-opacity:1;stroke:none;paint-order:stroke fill markers" />
  <path
     d="m 172.89725,251.43927 c 0,1.69366 -1.37298,3.06666 -3.06665,3.06666 -1.69367,0 -3.06666,-1.373 -3.06666,-3.06666 0,-1.69367 1.37299,-3.06665 3.06666,-3.06665 1.69367,0 3.06665,1.37298 3.06665,3.06665 z"
     stroke-miterlimit="10"
     id="path89"
     inkscape:connector-curvature="0"
     style="fill:none;stroke:#000000;stroke-width:0.76666367;stroke-linecap:round;stroke-linejoin:round;stroke-miterlimit:10;stroke-opacity:1;paint-order:fill stroke markers" />
  <path
     d="m 172.8803,140.18256 c 0,1.69366 -1.37299,3.06665 -3.06665,3.06665 -1.69367,0 -3.06666,-1.37299 -3.06666,-3.06665 0,-1.69367 1.37299,-3.06666 3.06666,-3.06666 1.69366,0 3.06665,1.37299 3.06665,3.06666 z"
     id="path91"
     inkscape:connector-curvature="0"
     style="fill:#404040;fill-opacity:1;stroke:none;paint-order:stroke fill markers" />
  <path
     d="m 172.8803,140.18256 c 0,1.69366 -1.37299,3.06665 -3.06665,3.06665 -1.69367,0 -3.06666,-1.37299 -3.06666,-3.06665 0,-1.69367 1.37299,-3.06666 3.06666,-3.06666 1.69366,0 3.06665,1.37299 3.06665,3.06666 z"
     stroke-miterlimit="10"
     id="path93"
     inkscape:connector-curvature="0"
     style="fill:none;stroke:#000000;stroke-width:0.76666367;stroke-linecap:round;stroke-linejoin:round;stroke-miterlimit:10;stroke-opacity:1;paint-order:fill stroke markers" />
  <text
     font-size="16px"
     font-style="normal"
     font-weight="normal"
     text-decoration="normal"
     x="172.85066"
     y="133.92528"
     dominant-baseline="alphabetic"
     stroke-miterlimit="10"
     id="text95"
     style="font-style:normal;font-weight:normal;font-size:12.26661873px;font-family:geogebra-sans-serif, sans-serif;text-anchor:start;fill:none;stroke:#ffffff;stroke-width:2.29999113;stroke-linecap:round;stroke-linejoin:bevel;stroke-miterlimit:10;stroke-opacity:1">E</text>
  <text
     font-size="16px"
     font-style="normal"
     font-weight="normal"
     text-decoration="normal"
     x="172.85066"
     y="133.92528"
     dominant-baseline="alphabetic"
     id="text97"
     style="font-style:normal;font-weight:normal;font-size:12.26661873px;font-family:geogebra-sans-serif, sans-serif;text-anchor:start;fill:#404040;fill-opacity:1;stroke:none">E</text>
  <path
     d="m 172.89725,251.43927 c 0,1.69366 -1.37298,3.06666 -3.06665,3.06666 -1.69367,0 -3.06666,-1.373 -3.06666,-3.06666 0,-1.69367 1.37299,-3.06665 3.06666,-3.06665 1.69367,0 3.06665,1.37298 3.06665,3.06665 z"
     id="path99"
     inkscape:connector-curvature="0"
     style="fill:#444444;fill-opacity:1;stroke:none;paint-order:stroke fill markers" />
  <path
     d="m 172.89725,251.43927 c 0,1.69366 -1.37298,3.06666 -3.06665,3.06666 -1.69367,0 -3.06666,-1.373 -3.06666,-3.06666 0,-1.69367 1.37299,-3.06665 3.06666,-3.06665 1.69367,0 3.06665,1.37298 3.06665,3.06665 z"
     stroke-miterlimit="10"
     id="path101"
     inkscape:connector-curvature="0"
     style="fill:none;stroke:#000000;stroke-width:0.76666367;stroke-linecap:round;stroke-linejoin:round;stroke-miterlimit:10;stroke-opacity:1;paint-order:fill stroke markers" />
  <path
     d="m 290.11727,252.68798 c 0,1.69367 -1.37299,3.06666 -3.06665,3.06666 -1.69367,0 -3.06666,-1.37299 -3.06666,-3.06666 0,-1.69366 1.37299,-3.06665 3.06666,-3.06665 1.69366,0 3.06665,1.37299 3.06665,3.06665 z"
     id="path103"
     inkscape:connector-curvature="0"
     style="fill:#404040;fill-opacity:1;stroke:none;paint-order:stroke fill markers" />
  <path
     d="m 290.11727,252.68798 c 0,1.69367 -1.37299,3.06666 -3.06665,3.06666 -1.69367,0 -3.06666,-1.37299 -3.06666,-3.06666 0,-1.69366 1.37299,-3.06665 3.06666,-3.06665 1.69366,0 3.06665,1.37299 3.06665,3.06665 z"
     stroke-miterlimit="10"
     id="path105"
     inkscape:connector-curvature="0"
     style="fill:none;stroke:#000000;stroke-width:0.76666367;stroke-linecap:round;stroke-linejoin:round;stroke-miterlimit:10;stroke-opacity:1;paint-order:fill stroke markers" />
  <text
     font-size="16px"
     font-style="normal"
     font-weight="normal"
     text-decoration="normal"
     x="290.15018"
     y="246.62485"
     dominant-baseline="alphabetic"
     stroke-miterlimit="10"
     id="text107"
     style="font-style:normal;font-weight:normal;font-size:12.26661873px;font-family:geogebra-sans-serif, sans-serif;text-anchor:start;fill:none;stroke:#ffffff;stroke-width:2.29999113;stroke-linecap:round;stroke-linejoin:bevel;stroke-miterlimit:10;stroke-opacity:1">D</text>
  <text
     font-size="16px"
     font-style="normal"
     font-weight="normal"
     text-decoration="normal"
     x="290.15018"
     y="246.62485"
     dominant-baseline="alphabetic"
     id="text109"
     style="font-style:normal;font-weight:normal;font-size:12.26661873px;font-family:geogebra-sans-serif, sans-serif;text-anchor:start;fill:#404040;fill-opacity:1;stroke:none">D</text>
  <path
     d="m 290.17109,140.0222 c 0,1.69367 -1.373,3.06665 -3.06665,3.06665 -1.69367,0 -3.06666,-1.37298 -3.06666,-3.06665 0,-1.69367 1.37299,-3.06665 3.06666,-3.06665 1.69365,0 3.06665,1.37298 3.06665,3.06665 z"
     id="path111"
     inkscape:connector-curvature="0"
     style="fill:#444444;fill-opacity:1;stroke:none;paint-order:stroke fill markers" />
  <path
     d="m 290.17109,140.0222 c 0,1.69367 -1.373,3.06665 -3.06665,3.06665 -1.69367,0 -3.06666,-1.37298 -3.06666,-3.06665 0,-1.69367 1.37299,-3.06665 3.06666,-3.06665 1.69365,0 3.06665,1.37298 3.06665,3.06665 z"
     stroke-miterlimit="10"
     id="path113"
     inkscape:connector-curvature="0"
     style="fill:none;stroke:#000000;stroke-width:0.76666367;stroke-linecap:round;stroke-linejoin:round;stroke-miterlimit:10;stroke-opacity:1;paint-order:fill stroke markers" />
  <path
     d="m 290.17109,140.0222 c 0,1.69367 -1.373,3.06665 -3.06665,3.06665 -1.69367,0 -3.06666,-1.37298 -3.06666,-3.06665 0,-1.69367 1.37299,-3.06665 3.06666,-3.06665 1.69365,0 3.06665,1.37298 3.06665,3.06665 z"
     id="path115"
     inkscape:connector-curvature="0"
     style="fill:#444444;fill-opacity:1;stroke:none;paint-order:stroke fill markers" />
  <path
     d="m 290.17109,140.0222 c 0,1.69367 -1.373,3.06665 -3.06665,3.06665 -1.69367,0 -3.06666,-1.37298 -3.06666,-3.06665 0,-1.69367 1.37299,-3.06665 3.06666,-3.06665 1.69365,0 3.06665,1.37298 3.06665,3.06665 z"
     stroke-miterlimit="10"
     id="path117"
     inkscape:connector-curvature="0"
     style="fill:none;stroke:#000000;stroke-width:0.76666367;stroke-linecap:round;stroke-linejoin:round;stroke-miterlimit:10;stroke-opacity:1;paint-order:fill stroke markers" />
  <path
     d="m 290.17109,140.0222 c 0,1.69367 -1.373,3.06665 -3.06665,3.06665 -1.69367,0 -3.06666,-1.37298 -3.06666,-3.06665 0,-1.69367 1.37299,-3.06665 3.06666,-3.06665 1.69365,0 3.06665,1.37298 3.06665,3.06665 z"
     id="path119"
     inkscape:connector-curvature="0"
     style="fill:#444444;fill-opacity:1;stroke:none;paint-order:stroke fill markers" />
  <path
     d="m 290.17109,140.0222 c 0,1.69367 -1.373,3.06665 -3.06665,3.06665 -1.69367,0 -3.06666,-1.37298 -3.06666,-3.06665 0,-1.69367 1.37299,-3.06665 3.06666,-3.06665 1.69365,0 3.06665,1.37298 3.06665,3.06665 z"
     stroke-miterlimit="10"
     id="path121"
     inkscape:connector-curvature="0"
     style="fill:none;stroke:#000000;stroke-width:0.76666367;stroke-linecap:round;stroke-linejoin:round;stroke-miterlimit:10;stroke-opacity:1;paint-order:fill stroke markers" />
  <path
     d="m 290.17109,140.0222 c 0,1.69367 -1.373,3.06665 -3.06665,3.06665 -1.69367,0 -3.06666,-1.37298 -3.06666,-3.06665 0,-1.69367 1.37299,-3.06665 3.06666,-3.06665 1.69365,0 3.06665,1.37298 3.06665,3.06665 z"
     id="path123"
     inkscape:connector-curvature="0"
     style="fill:#444444;fill-opacity:1;stroke:none;paint-order:stroke fill markers" />
  <path
     d="m 290.17109,140.0222 c 0,1.69367 -1.373,3.06665 -3.06665,3.06665 -1.69367,0 -3.06666,-1.37298 -3.06666,-3.06665 0,-1.69367 1.37299,-3.06665 3.06666,-3.06665 1.69365,0 3.06665,1.37298 3.06665,3.06665 z"
     stroke-miterlimit="10"
     id="path125"
     inkscape:connector-curvature="0"
     style="fill:none;stroke:#000000;stroke-width:0.76666367;stroke-linecap:round;stroke-linejoin:round;stroke-miterlimit:10;stroke-opacity:1;paint-order:fill stroke markers" />
  <path
     d="m 172.89725,251.43927 c 0,1.69366 -1.37298,3.06666 -3.06665,3.06666 -1.69367,0 -3.06666,-1.373 -3.06666,-3.06666 0,-1.69367 1.37299,-3.06665 3.06666,-3.06665 1.69367,0 3.06665,1.37298 3.06665,3.06665 z"
     id="path127"
     inkscape:connector-curvature="0"
     style="fill:#444444;fill-opacity:1;stroke:none;paint-order:stroke fill markers" />
  <path
     d="m 172.89725,251.43927 c 0,1.69366 -1.37298,3.06666 -3.06665,3.06666 -1.69367,0 -3.06666,-1.373 -3.06666,-3.06666 0,-1.69367 1.37299,-3.06665 3.06666,-3.06665 1.69367,0 3.06665,1.37298 3.06665,3.06665 z"
     stroke-miterlimit="10"
     id="path129"
     inkscape:connector-curvature="0"
     style="fill:none;stroke:#000000;stroke-width:0.76666367;stroke-linecap:round;stroke-linejoin:round;stroke-miterlimit:10;stroke-opacity:1;paint-order:fill stroke markers" />
  <path
     d="m 172.89725,251.43927 c 0,1.69366 -1.37298,3.06666 -3.06665,3.06666 -1.69367,0 -3.06666,-1.373 -3.06666,-3.06666 0,-1.69367 1.37299,-3.06665 3.06666,-3.06665 1.69367,0 3.06665,1.37298 3.06665,3.06665 z"
     id="path131"
     inkscape:connector-curvature="0"
     style="fill:#444444;fill-opacity:1;stroke:none;paint-order:stroke fill markers" />
  <path
     d="m 172.89725,251.43927 c 0,1.69366 -1.37298,3.06666 -3.06665,3.06666 -1.69367,0 -3.06666,-1.373 -3.06666,-3.06666 0,-1.69367 1.37299,-3.06665 3.06666,-3.06665 1.69367,0 3.06665,1.37298 3.06665,3.06665 z"
     stroke-miterlimit="10"
     id="path133"
     inkscape:connector-curvature="0"
     style="fill:none;stroke:#000000;stroke-width:0.76666367;stroke-linecap:round;stroke-linejoin:round;stroke-miterlimit:10;stroke-opacity:1;paint-order:fill stroke markers" />
  <text
     font-size="16px"
     font-style="normal"
     font-weight="normal"
     text-decoration="normal"
     x="156.75069"
     y="267.32477"
     dominant-baseline="alphabetic"
     id="text135"
     style="font-style:normal;font-weight:normal;font-size:12.26661873px;font-family:geogebra-sans-serif, sans-serif;text-anchor:start;fill:#000000;fill-opacity:1;stroke:none">0</text>
  <g
     transform="matrix(14.56661,0,0,14.56661,-30.315218,-13.274148)"
     id="g137">
    <g
       transform="translate(16.578947,10.220761)"
       id="g139">
      <path
         d="m 0.36,-0.407 q -0.026,-0.006 -0.065,-0.006 -0.037,0 -0.063,0.015 -0.026,0.015 -0.0385,0.0335 -0.0125,0.0185 -0.019,0.049 -0.0065,0.0305 -0.0075,0.047 -0.001,0.0165 -0.001,0.0415 0,0.193 0.139,0.193 0.091,0 0.125,-0.082 0.004,-0.01 0.0075,-0.0125 0.0035,-0.0025 0.0165,-0.0025 0.024,0 0.024,0.014 0,0.006 -0.008,0.0225 -0.008,0.0165 -0.0265,0.041 -0.0185,0.0245 -0.06,0.042 Q 0.342,0.006 0.286,0.006 0.172,0.006 0.105,-0.0575 0.038,-0.121 0.038,-0.222 q 0,-0.096 0.0635,-0.1635 0.0635,-0.0675 0.1895,-0.0675 0.174,0 0.174,0.092 0,0.03 -0.019,0.0465 -0.019,0.0165 -0.044,0.0165 -0.023,0 -0.0425,-0.0165 Q 0.34,-0.331 0.34,-0.361 q 0,-0.028 0.02,-0.046 z"
         id="path141"
         inkscape:connector-curvature="0"
         style="fill:#996600;stroke:none;paint-order:stroke fill markers" />
    </g>
    <g
       transform="translate(17.090055,10.220761)"
       id="g143">
      <path
         d="m 0.542,-0.218 q 0,0.097 -0.067,0.1605 Q 0.408,0.006 0.287,0.006 0.166,0.006 0.099,-0.0575 0.032,-0.121 0.032,-0.218 q 0,-0.103 0.0675,-0.169 0.0675,-0.066 0.1875,-0.066 0.119,0 0.187,0.066 0.068,0.066 0.068,0.169 m -0.3085,0.1765 q 0,0 0.01125,0.00375 Q 0.256,-0.034 0.287,-0.034 q 0.031,0 0.0535,-0.0075 Q 0.363,-0.049 0.3765,-0.066 0.39,-0.083 0.398,-0.098 q 0.008,-0.015 0.0115,-0.0425 0.0035,-0.0275 0.004,-0.043 5e-4,-0.0155 5e-4,-0.0455 0,-0.103 -0.021,-0.137 -0.032,-0.051 -0.106,-0.051 -0.08,0 -0.11,0.058 -0.017,0.034 -0.017,0.13 0,0.03 5e-4,0.0455 5e-4,0.0155 0.004,0.043 0.0035,0.0275 0.0115,0.0425 0.008,0.015 0.0215,0.032 0.0135,0.017 0.036,0.0245 z"
         id="path145"
         inkscape:connector-curvature="0"
         style="fill:#996600;stroke:none;paint-order:stroke fill markers" />
    </g>
    <g
       transform="translate(17.665052,10.220761)"
       id="g147">
      <path
         d="m 0.211,-0.294 q 0.065,0.011 0.0935,0.0195 0.0285,0.0085 0.0555,0.0285 0.055,0.044 0.055,0.106 0,0.035 -0.011,0.0615 Q 0.393,-0.052 0.3735,-0.037 0.354,-0.022 0.335,-0.0125 0.316,-0.003 0.291,5e-4 0.266,0.004 0.255,0.005 0.244,0.006 0.23,0.006 0.158,0.006 0.112,-0.026 0.087,-0.009 0.086,-0.009 0.065,0.006 0.056,0.006 0.044,0.006 0.041,0 0.038,-0.006 0.038,-0.022 l 0,-0.109 q 0,-0.019 0.0035,-0.024 0.0035,-0.005 0.0205,-0.005 0.012,0 0.0165,0.002 0.0045,0.002 0.0075,0.012 0.006,0.021 0.0135,0.037 0.0075,0.016 0.023,0.0365 0.0155,0.0205 0.043,0.0315 0.0275,0.011 0.0645,0.011 0.114,0 0.114,-0.075 0,-0.021 -0.011,-0.036 Q 0.322,-0.156 0.301,-0.1645 0.28,-0.173 0.2665,-0.1765 0.253,-0.18 0.233,-0.183 0.184,-0.192 0.165,-0.196 0.146,-0.2 0.1215,-0.2105 0.097,-0.221 0.078,-0.238 0.038,-0.272 0.038,-0.322 0.038,-0.353 0.049,-0.377 0.06,-0.401 0.0795,-0.4145 0.099,-0.428 0.118,-0.4365 0.137,-0.445 0.1615,-0.448 0.186,-0.451 0.1975,-0.452 0.209,-0.453 0.222,-0.453 q 0.063,0 0.101,0.019 0.039,-0.019 0.045,-0.019 0.012,0 0.015,0.0055 0.003,0.0055 0.003,0.0225 l 0,0.08 q 0,0.019 -0.0035,0.0235 Q 0.379,-0.317 0.362,-0.317 0.347,-0.317 0.3435,-0.321 0.34,-0.325 0.339,-0.337 0.331,-0.421 0.221,-0.421 q -0.112,0 -0.112,0.062 0,0.017 0.0095,0.029 0.0095,0.012 0.029,0.019 0.0195,0.007 0.0305,0.01 0.011,0.003 0.033,0.007 z"
         id="path149"
         inkscape:connector-curvature="0"
         style="fill:#996600;stroke:none;paint-order:stroke fill markers" />
    </g>
    <g
       transform="translate(18.285328,10.220761)"
       id="g151">
      <path
         d="m 0.547,-0.49 q 0,0.071 -0.027,0.1725 Q 0.493,-0.216 0.436,-0.133 0.388,-0.061 0.3275,-0.0265 0.267,0.008 0.212,0.008 0.14,0.008 0.093,-0.0455 0.046,-0.099 0.046,-0.203 0.046,-0.267 0.0685,-0.3565 0.091,-0.446 0.128,-0.514 0.181,-0.61 0.249,-0.656 q 0.068,-0.046 0.133,-0.046 0.026,0 0.052,0.009 0.026,0.009 0.053,0.0305 0.027,0.0215 0.0435,0.066 Q 0.547,-0.552 0.547,-0.49 m -0.349,0.119 0.209,0 q 0.033,-0.126 0.033,-0.192 0,-0.103 -0.06,-0.103 -0.059,0 -0.112,0.094 -0.037,0.064 -0.07,0.201 m 0.197,0.048 -0.209,0 q -0.033,0.129 -0.033,0.193 0,0.04 0.012,0.067 0.016,0.035 0.049,0.035 0.013,0 0.0265,-0.0045 Q 0.254,-0.037 0.275,-0.055 0.296,-0.073 0.315,-0.103 0.334,-0.133 0.3555,-0.19 0.377,-0.247 0.395,-0.323 Z"
         id="path153"
         inkscape:connector-curvature="0"
         style="fill:#996600;stroke:none;paint-order:stroke fill markers" />
    </g>
  </g>
  <g
     transform="matrix(14.56661,0,0,14.56661,-30.315218,-13.274148)"
     id="g155">
    <g
       transform="translate(19.368421,15.010234)"
       id="g157">
      <path
         d="m 0.211,-0.294 q 0.065,0.011 0.0935,0.0195 0.0285,0.0085 0.0555,0.0285 0.055,0.044 0.055,0.106 0,0.035 -0.011,0.0615 Q 0.393,-0.052 0.3735,-0.037 0.354,-0.022 0.335,-0.0125 0.316,-0.003 0.291,5e-4 0.266,0.004 0.255,0.005 0.244,0.006 0.23,0.006 0.158,0.006 0.112,-0.026 0.087,-0.009 0.086,-0.009 0.065,0.006 0.056,0.006 0.044,0.006 0.041,0 0.038,-0.006 0.038,-0.022 l 0,-0.109 q 0,-0.019 0.0035,-0.024 0.0035,-0.005 0.0205,-0.005 0.012,0 0.0165,0.002 0.0045,0.002 0.0075,0.012 0.006,0.021 0.0135,0.037 0.0075,0.016 0.023,0.0365 0.0155,0.0205 0.043,0.0315 0.0275,0.011 0.0645,0.011 0.114,0 0.114,-0.075 0,-0.021 -0.011,-0.036 Q 0.322,-0.156 0.301,-0.1645 0.28,-0.173 0.2665,-0.1765 0.253,-0.18 0.233,-0.183 0.184,-0.192 0.165,-0.196 0.146,-0.2 0.1215,-0.2105 0.097,-0.221 0.078,-0.238 0.038,-0.272 0.038,-0.322 0.038,-0.353 0.049,-0.377 0.06,-0.401 0.0795,-0.4145 0.099,-0.428 0.118,-0.4365 0.137,-0.445 0.1615,-0.448 0.186,-0.451 0.1975,-0.452 0.209,-0.453 0.222,-0.453 q 0.063,0 0.101,0.019 0.039,-0.019 0.045,-0.019 0.012,0 0.015,0.0055 0.003,0.0055 0.003,0.0225 l 0,0.08 q 0,0.019 -0.0035,0.0235 Q 0.379,-0.317 0.362,-0.317 0.347,-0.317 0.3435,-0.321 0.34,-0.325 0.339,-0.337 0.331,-0.421 0.221,-0.421 q -0.112,0 -0.112,0.062 0,0.017 0.0095,0.029 0.0095,0.012 0.029,0.019 0.0195,0.007 0.0305,0.01 0.011,0.003 0.033,0.007 z"
         id="path159"
         inkscape:connector-curvature="0"
         style="fill:#996600;stroke:none;paint-order:stroke fill markers" />
    </g>
    <g
       transform="translate(19.82203,15.010234)"
       id="g161">
      <path
         d="m 0.224,-0.45 0,0.403 0.062,0 0,0.047 Q 0.178,-0.003 0.169,-0.003 0.14,-0.003 0.047,0 l 0,-0.047 0.069,0 0,-0.309 q 0,-0.028 -0.01,-0.0335 Q 0.096,-0.395 0.05,-0.395 l 0,-0.047 0.174,-0.008 M 0.211,-0.6725 q 0,0 0.0115,0.01125 Q 0.234,-0.65 0.234,-0.617 q 0,0.033 -0.023,0.0555 -0.023,0.0225 -0.055,0.0225 -0.032,0 -0.055,-0.023 -0.023,-0.023 -0.023,-0.055 0,-0.032 0.023,-0.055 0.023,-0.023 0.055,-0.023 0.032,0 0.055,0.0225 z"
         id="path163"
         inkscape:connector-curvature="0"
         style="fill:#996600;stroke:none;paint-order:stroke fill markers" />
    </g>
    <g
       transform="translate(20.141473,15.010234)"
       id="g165">
      <path
         d="m 0.045,-0.047 0.069,0 0,-0.309 q 0,-0.028 -0.0105,-0.0335 Q 0.093,-0.395 0.045,-0.395 l 0,-0.047 0.172,-0.008 0,0.108 q 0.055,-0.108 0.175,-0.108 0.077,0 0.1155,0.0335 0.0385,0.0335 0.0385,0.1105 l 0,0.259 0.069,0 0,0.047 Q 0.531,-0.003 0.489,-0.003 0.447,-0.003 0.363,0 l 0,-0.047 0.069,0 0,-0.27 q 0,-0.054 -0.014,-0.0755 -0.014,-0.0215 -0.041,-0.0215 -0.055,0 -0.102,0.0415 -0.047,0.0415 -0.047,0.1165 l 0,0.209 0.069,0 0,0.047 Q 0.213,-0.003 0.171,-0.003 0.129,-0.003 0.045,0 l 0,-0.047 z"
         id="path167"
         inkscape:connector-curvature="0"
         style="fill:#996600;stroke:none;paint-order:stroke fill markers" />
    </g>
    <g
       transform="translate(20.947025,15.010234)"
       id="g169">
      <path
         d="m 0.547,-0.49 q 0,0.071 -0.027,0.1725 Q 0.493,-0.216 0.436,-0.133 0.388,-0.061 0.3275,-0.0265 0.267,0.008 0.212,0.008 0.14,0.008 0.093,-0.0455 0.046,-0.099 0.046,-0.203 0.046,-0.267 0.0685,-0.3565 0.091,-0.446 0.128,-0.514 0.181,-0.61 0.249,-0.656 q 0.068,-0.046 0.133,-0.046 0.026,0 0.052,0.009 0.026,0.009 0.053,0.0305 0.027,0.0215 0.0435,0.066 Q 0.547,-0.552 0.547,-0.49 m -0.349,0.119 0.209,0 q 0.033,-0.126 0.033,-0.192 0,-0.103 -0.06,-0.103 -0.059,0 -0.112,0.094 -0.037,0.064 -0.07,0.201 m 0.197,0.048 -0.209,0 q -0.033,0.129 -0.033,0.193 0,0.04 0.012,0.067 0.016,0.035 0.049,0.035 0.013,0 0.0265,-0.0045 Q 0.254,-0.037 0.275,-0.055 0.296,-0.073 0.315,-0.103 0.334,-0.133 0.3555,-0.19 0.377,-0.247 0.395,-0.323 Z"
         id="path171"
         inkscape:connector-curvature="0"
         style="fill:#996600;stroke:none;paint-order:stroke fill markers" />
    </g>
  </g>
  <g
     transform="matrix(14.56661,0,0,14.56661,-30.315218,-13.274148)"
     id="g173">
    <g
       transform="translate(11.157895,12.799708)"
       id="g175">
      <path
         d="m 0.36,-0.407 q -0.026,-0.006 -0.065,-0.006 -0.037,0 -0.063,0.015 -0.026,0.015 -0.0385,0.0335 -0.0125,0.0185 -0.019,0.049 -0.0065,0.0305 -0.0075,0.047 -0.001,0.0165 -0.001,0.0415 0,0.193 0.139,0.193 0.091,0 0.125,-0.082 0.004,-0.01 0.0075,-0.0125 0.0035,-0.0025 0.0165,-0.0025 0.024,0 0.024,0.014 0,0.006 -0.008,0.0225 -0.008,0.0165 -0.0265,0.041 -0.0185,0.0245 -0.06,0.042 Q 0.342,0.006 0.286,0.006 0.172,0.006 0.105,-0.0575 0.038,-0.121 0.038,-0.222 q 0,-0.096 0.0635,-0.1635 0.0635,-0.0675 0.1895,-0.0675 0.174,0 0.174,0.092 0,0.03 -0.019,0.0465 -0.019,0.0165 -0.044,0.0165 -0.023,0 -0.0425,-0.0165 Q 0.34,-0.331 0.34,-0.361 q 0,-0.028 0.02,-0.046 z"
         id="path177"
         inkscape:connector-curvature="0"
         style="fill:#ff0000;stroke:none;paint-order:stroke fill markers" />
    </g>
    <g
       transform="translate(11.669003,12.799708)"
       id="g179">
      <path
         d="m 0.211,-0.294 q 0.065,0.011 0.0935,0.0195 0.0285,0.0085 0.0555,0.0285 0.055,0.044 0.055,0.106 0,0.035 -0.011,0.0615 Q 0.393,-0.052 0.3735,-0.037 0.354,-0.022 0.335,-0.0125 0.316,-0.003 0.291,5e-4 0.266,0.004 0.255,0.005 0.244,0.006 0.23,0.006 0.158,0.006 0.112,-0.026 0.087,-0.009 0.086,-0.009 0.065,0.006 0.056,0.006 0.044,0.006 0.041,0 0.038,-0.006 0.038,-0.022 l 0,-0.109 q 0,-0.019 0.0035,-0.024 0.0035,-0.005 0.0205,-0.005 0.012,0 0.0165,0.002 0.0045,0.002 0.0075,0.012 0.006,0.021 0.0135,0.037 0.0075,0.016 0.023,0.0365 0.0155,0.0205 0.043,0.0315 0.0275,0.011 0.0645,0.011 0.114,0 0.114,-0.075 0,-0.021 -0.011,-0.036 Q 0.322,-0.156 0.301,-0.1645 0.28,-0.173 0.2665,-0.1765 0.253,-0.18 0.233,-0.183 0.184,-0.192 0.165,-0.196 0.146,-0.2 0.1215,-0.2105 0.097,-0.221 0.078,-0.238 0.038,-0.272 0.038,-0.322 0.038,-0.353 0.049,-0.377 0.06,-0.401 0.0795,-0.4145 0.099,-0.428 0.118,-0.4365 0.137,-0.445 0.1615,-0.448 0.186,-0.451 0.1975,-0.452 0.209,-0.453 0.222,-0.453 q 0.063,0 0.101,0.019 0.039,-0.019 0.045,-0.019 0.012,0 0.015,0.0055 0.003,0.0055 0.003,0.0225 l 0,0.08 q 0,0.019 -0.0035,0.0235 Q 0.379,-0.317 0.362,-0.317 0.347,-0.317 0.3435,-0.321 0.34,-0.325 0.339,-0.337 0.331,-0.421 0.221,-0.421 q -0.112,0 -0.112,0.062 0,0.017 0.0095,0.029 0.0095,0.012 0.029,0.019 0.0195,0.007 0.0305,0.01 0.011,0.003 0.033,0.007 z"
         id="path181"
         inkscape:connector-curvature="0"
         style="fill:#ff0000;stroke:none;paint-order:stroke fill markers" />
    </g>
    <g
       transform="translate(12.122611,12.799708)"
       id="g183">
      <path
         d="m 0.36,-0.407 q -0.026,-0.006 -0.065,-0.006 -0.037,0 -0.063,0.015 -0.026,0.015 -0.0385,0.0335 -0.0125,0.0185 -0.019,0.049 -0.0065,0.0305 -0.0075,0.047 -0.001,0.0165 -0.001,0.0415 0,0.193 0.139,0.193 0.091,0 0.125,-0.082 0.004,-0.01 0.0075,-0.0125 0.0035,-0.0025 0.0165,-0.0025 0.024,0 0.024,0.014 0,0.006 -0.008,0.0225 -0.008,0.0165 -0.0265,0.041 -0.0185,0.0245 -0.06,0.042 Q 0.342,0.006 0.286,0.006 0.172,0.006 0.105,-0.0575 0.038,-0.121 0.038,-0.222 q 0,-0.096 0.0635,-0.1635 0.0635,-0.0675 0.1895,-0.0675 0.174,0 0.174,0.092 0,0.03 -0.019,0.0465 -0.019,0.0165 -0.044,0.0165 -0.023,0 -0.0425,-0.0165 Q 0.34,-0.331 0.34,-0.361 q 0,-0.028 0.02,-0.046 z"
         id="path185"
         inkscape:connector-curvature="0"
         style="fill:#ff0000;stroke:none;paint-order:stroke fill markers" />
    </g>
    <g
       transform="translate(12.800386,12.799708)"
       id="g187">
      <path
         d="m 0.547,-0.49 q 0,0.071 -0.027,0.1725 Q 0.493,-0.216 0.436,-0.133 0.388,-0.061 0.3275,-0.0265 0.267,0.008 0.212,0.008 0.14,0.008 0.093,-0.0455 0.046,-0.099 0.046,-0.203 0.046,-0.267 0.0685,-0.3565 0.091,-0.446 0.128,-0.514 0.181,-0.61 0.249,-0.656 q 0.068,-0.046 0.133,-0.046 0.026,0 0.052,0.009 0.026,0.009 0.053,0.0305 0.027,0.0215 0.0435,0.066 Q 0.547,-0.552 0.547,-0.49 m -0.349,0.119 0.209,0 q 0.033,-0.126 0.033,-0.192 0,-0.103 -0.06,-0.103 -0.059,0 -0.112,0.094 -0.037,0.064 -0.07,0.201 m 0.197,0.048 -0.209,0 q -0.033,0.129 -0.033,0.193 0,0.04 0.012,0.067 0.016,0.035 0.049,0.035 0.013,0 0.0265,-0.0045 Q 0.254,-0.037 0.275,-0.055 0.296,-0.073 0.315,-0.103 0.334,-0.133 0.3555,-0.19 0.377,-0.247 0.395,-0.323 Z"
         id="path189"
         inkscape:connector-curvature="0"
         style="fill:#ff0000;stroke:none;paint-order:stroke fill markers" />
    </g>
  </g>
  <g
     transform="matrix(14.56661,0,0,14.56661,-30.315218,-13.274148)"
     id="g191">
    <g
       transform="translate(16.894737,19.326024)"
       id="g193">
      <path
         d="m 0.211,-0.294 q 0.065,0.011 0.0935,0.0195 0.0285,0.0085 0.0555,0.0285 0.055,0.044 0.055,0.106 0,0.035 -0.011,0.0615 Q 0.393,-0.052 0.3735,-0.037 0.354,-0.022 0.335,-0.0125 0.316,-0.003 0.291,5e-4 0.266,0.004 0.255,0.005 0.244,0.006 0.23,0.006 0.158,0.006 0.112,-0.026 0.087,-0.009 0.086,-0.009 0.065,0.006 0.056,0.006 0.044,0.006 0.041,0 0.038,-0.006 0.038,-0.022 l 0,-0.109 q 0,-0.019 0.0035,-0.024 0.0035,-0.005 0.0205,-0.005 0.012,0 0.0165,0.002 0.0045,0.002 0.0075,0.012 0.006,0.021 0.0135,0.037 0.0075,0.016 0.023,0.0365 0.0155,0.0205 0.043,0.0315 0.0275,0.011 0.0645,0.011 0.114,0 0.114,-0.075 0,-0.021 -0.011,-0.036 Q 0.322,-0.156 0.301,-0.1645 0.28,-0.173 0.2665,-0.1765 0.253,-0.18 0.233,-0.183 0.184,-0.192 0.165,-0.196 0.146,-0.2 0.1215,-0.2105 0.097,-0.221 0.078,-0.238 0.038,-0.272 0.038,-0.322 0.038,-0.353 0.049,-0.377 0.06,-0.401 0.0795,-0.4145 0.099,-0.428 0.118,-0.4365 0.137,-0.445 0.1615,-0.448 0.186,-0.451 0.1975,-0.452 0.209,-0.453 0.222,-0.453 q 0.063,0 0.101,0.019 0.039,-0.019 0.045,-0.019 0.012,0 0.015,0.0055 0.003,0.0055 0.003,0.0225 l 0,0.08 q 0,0.019 -0.0035,0.0235 Q 0.379,-0.317 0.362,-0.317 0.347,-0.317 0.3435,-0.321 0.34,-0.325 0.339,-0.337 0.331,-0.421 0.221,-0.421 q -0.112,0 -0.112,0.062 0,0.017 0.0095,0.029 0.0095,0.012 0.029,0.019 0.0195,0.007 0.0305,0.01 0.011,0.003 0.033,0.007 z"
         id="path195"
         inkscape:connector-curvature="0"
         style="fill:#6699ff;stroke:none;paint-order:stroke fill markers" />
    </g>
    <g
       transform="translate(17.348345,19.326024)"
       id="g197">
      <path
         d="m 0.462,-0.218 -0.302,0 q 0,0.184 0.142,0.184 0.049,0 0.088,-0.022 0.039,-0.022 0.055,-0.058 0.005,-0.013 0.009,-0.017 0.004,-0.004 0.016,-0.004 0.024,0 0.024,0.018 0,0.009 -0.01,0.027 -0.01,0.018 -0.0305,0.0405 Q 0.433,-0.027 0.3905,-0.0105 0.348,0.006 0.293,0.006 0.174,0.006 0.103,-0.0585 0.032,-0.123 0.032,-0.225 q 0,-0.098 0.0655,-0.163 0.0655,-0.065 0.1815,-0.065 0.103,0 0.159,0.054 0.056,0.056 0.056,0.154 0,0.019 -0.0065,0.023 -0.0065,0.004 -0.0255,0.004 m -0.302,-0.033 0.239,0 q -0.005,-0.166 -0.12,-0.166 -0.061,0 -0.095,0.052 -0.02,0.031 -0.024,0.114 z"
         id="path199"
         inkscape:connector-curvature="0"
         style="fill:#6699ff;stroke:none;paint-order:stroke fill markers" />
    </g>
    <g
       transform="translate(17.875427,19.326024)"
       id="g201">
      <path
         d="m 0.36,-0.407 q -0.026,-0.006 -0.065,-0.006 -0.037,0 -0.063,0.015 -0.026,0.015 -0.0385,0.0335 -0.0125,0.0185 -0.019,0.049 -0.0065,0.0305 -0.0075,0.047 -0.001,0.0165 -0.001,0.0415 0,0.193 0.139,0.193 0.091,0 0.125,-0.082 0.004,-0.01 0.0075,-0.0125 0.0035,-0.0025 0.0165,-0.0025 0.024,0 0.024,0.014 0,0.006 -0.008,0.0225 -0.008,0.0165 -0.0265,0.041 -0.0185,0.0245 -0.06,0.042 Q 0.342,0.006 0.286,0.006 0.172,0.006 0.105,-0.0575 0.038,-0.121 0.038,-0.222 q 0,-0.096 0.0635,-0.1635 0.0635,-0.0675 0.1895,-0.0675 0.174,0 0.174,0.092 0,0.03 -0.019,0.0465 -0.019,0.0165 -0.044,0.0165 -0.023,0 -0.0425,-0.0165 Q 0.34,-0.331 0.34,-0.361 q 0,-0.028 0.02,-0.046 z"
         id="path203"
         inkscape:connector-curvature="0"
         style="fill:#6699ff;stroke:none;paint-order:stroke fill markers" />
    </g>
    <g
       transform="translate(18.553202,19.326024)"
       id="g205">
      <path
         d="m 0.547,-0.49 q 0,0.071 -0.027,0.1725 Q 0.493,-0.216 0.436,-0.133 0.388,-0.061 0.3275,-0.0265 0.267,0.008 0.212,0.008 0.14,0.008 0.093,-0.0455 0.046,-0.099 0.046,-0.203 0.046,-0.267 0.0685,-0.3565 0.091,-0.446 0.128,-0.514 0.181,-0.61 0.249,-0.656 q 0.068,-0.046 0.133,-0.046 0.026,0 0.052,0.009 0.026,0.009 0.053,0.0305 0.027,0.0215 0.0435,0.066 Q 0.547,-0.552 0.547,-0.49 m -0.349,0.119 0.209,0 q 0.033,-0.126 0.033,-0.192 0,-0.103 -0.06,-0.103 -0.059,0 -0.112,0.094 -0.037,0.064 -0.07,0.201 m 0.197,0.048 -0.209,0 q -0.033,0.129 -0.033,0.193 0,0.04 0.012,0.067 0.016,0.035 0.049,0.035 0.013,0 0.0265,-0.0045 Q 0.254,-0.037 0.275,-0.055 0.296,-0.073 0.315,-0.103 0.334,-0.133 0.3555,-0.19 0.377,-0.247 0.395,-0.323 Z"
         id="path207"
         inkscape:connector-curvature="0"
         style="fill:#6699ff;stroke:none;paint-order:stroke fill markers" />
    </g>
  </g>
  <g
     transform="matrix(14.56661,0,0,14.56661,-30.315218,-13.274148)"
     id="g209">
    <g
       transform="translate(15.684211,17.694445)"
       id="g211">
      <path
         d="m 0.547,-0.49 q 0,0.071 -0.027,0.1725 Q 0.493,-0.216 0.436,-0.133 0.388,-0.061 0.3275,-0.0265 0.267,0.008 0.212,0.008 0.14,0.008 0.093,-0.0455 0.046,-0.099 0.046,-0.203 0.046,-0.267 0.0685,-0.3565 0.091,-0.446 0.128,-0.514 0.181,-0.61 0.249,-0.656 q 0.068,-0.046 0.133,-0.046 0.026,0 0.052,0.009 0.026,0.009 0.053,0.0305 0.027,0.0215 0.0435,0.066 Q 0.547,-0.552 0.547,-0.49 m -0.349,0.119 0.209,0 q 0.033,-0.126 0.033,-0.192 0,-0.103 -0.06,-0.103 -0.059,0 -0.112,0.094 -0.037,0.064 -0.07,0.201 m 0.197,0.048 -0.209,0 q -0.033,0.129 -0.033,0.193 0,0.04 0.012,0.067 0.016,0.035 0.049,0.035 0.013,0 0.0265,-0.0045 Q 0.254,-0.037 0.275,-0.055 0.296,-0.073 0.315,-0.103 0.334,-0.133 0.3555,-0.19 0.377,-0.247 0.395,-0.323 Z"
         id="path213"
         inkscape:connector-curvature="0"
         style="fill:#000000;stroke:none;paint-order:stroke fill markers" />
    </g>
  </g>
  <g
     transform="matrix(14.56661,0,0,14.56661,-30.315218,-13.274148)"
     id="g215">
    <g
       transform="translate(19.789474,11.641813)"
       id="g217">
      <path
         d="m 0.547,-0.49 q 0,0.071 -0.027,0.1725 Q 0.493,-0.216 0.436,-0.133 0.388,-0.061 0.3275,-0.0265 0.267,0.008 0.212,0.008 0.14,0.008 0.093,-0.0455 0.046,-0.099 0.046,-0.203 0.046,-0.267 0.0685,-0.3565 0.091,-0.446 0.128,-0.514 0.181,-0.61 0.249,-0.656 q 0.068,-0.046 0.133,-0.046 0.026,0 0.052,0.009 0.026,0.009 0.053,0.0305 0.027,0.0215 0.0435,0.066 Q 0.547,-0.552 0.547,-0.49 m -0.349,0.119 0.209,0 q 0.033,-0.126 0.033,-0.192 0,-0.103 -0.06,-0.103 -0.059,0 -0.112,0.094 -0.037,0.064 -0.07,0.201 m 0.197,0.048 -0.209,0 q -0.033,0.129 -0.033,0.193 0,0.04 0.012,0.067 0.016,0.035 0.049,0.035 0.013,0 0.0265,-0.0045 Q 0.254,-0.037 0.275,-0.055 0.296,-0.073 0.315,-0.103 0.334,-0.133 0.3555,-0.19 0.377,-0.247 0.395,-0.323 Z"
         id="path219"
         inkscape:connector-curvature="0"
         style="fill:#000000;stroke:none;paint-order:stroke fill markers" />
    </g>
  </g>
  <g
     transform="matrix(14.56661,0,0,14.56661,-30.315218,-13.274148)"
     id="g221">
    <g
       transform="translate(22,12.483919)"
       id="g223">
      <path
         d="m 0.547,-0.49 q 0,0.071 -0.027,0.1725 Q 0.493,-0.216 0.436,-0.133 0.388,-0.061 0.3275,-0.0265 0.267,0.008 0.212,0.008 0.14,0.008 0.093,-0.0455 0.046,-0.099 0.046,-0.203 0.046,-0.267 0.0685,-0.3565 0.091,-0.446 0.128,-0.514 0.181,-0.61 0.249,-0.656 q 0.068,-0.046 0.133,-0.046 0.026,0 0.052,0.009 0.026,0.009 0.053,0.0305 0.027,0.0215 0.0435,0.066 Q 0.547,-0.552 0.547,-0.49 m -0.349,0.119 0.209,0 q 0.033,-0.126 0.033,-0.192 0,-0.103 -0.06,-0.103 -0.059,0 -0.112,0.094 -0.037,0.064 -0.07,0.201 m 0.197,0.048 -0.209,0 q -0.033,0.129 -0.033,0.193 0,0.04 0.012,0.067 0.016,0.035 0.049,0.035 0.013,0 0.0265,-0.0045 Q 0.254,-0.037 0.275,-0.055 0.296,-0.073 0.315,-0.103 0.334,-0.133 0.3555,-0.19 0.377,-0.247 0.395,-0.323 Z"
         id="path225"
         inkscape:connector-curvature="0"
         style="fill:#000000;stroke:none;paint-order:stroke fill markers" />
    </g>
  </g>
  <g
     transform="matrix(14.56661,0,0,14.56661,-30.315218,-13.274148)"
     id="g227">
    <g
       transform="translate(14.157895,4.5891818)"
       id="g229">
      <path
         d="m 0.547,-0.49 q 0,0.071 -0.027,0.1725 Q 0.493,-0.216 0.436,-0.133 0.388,-0.061 0.3275,-0.0265 0.267,0.008 0.212,0.008 0.14,0.008 0.093,-0.0455 0.046,-0.099 0.046,-0.203 0.046,-0.267 0.0685,-0.3565 0.091,-0.446 0.128,-0.514 0.181,-0.61 0.249,-0.656 q 0.068,-0.046 0.133,-0.046 0.026,0 0.052,0.009 0.026,0.009 0.053,0.0305 0.027,0.0215 0.0435,0.066 Q 0.547,-0.552 0.547,-0.49 m -0.349,0.119 0.209,0 q 0.033,-0.126 0.033,-0.192 0,-0.103 -0.06,-0.103 -0.059,0 -0.112,0.094 -0.037,0.064 -0.07,0.201 m 0.197,0.048 -0.209,0 q -0.033,0.129 -0.033,0.193 0,0.04 0.012,0.067 0.016,0.035 0.049,0.035 0.013,0 0.0265,-0.0045 Q 0.254,-0.037 0.275,-0.055 0.296,-0.073 0.315,-0.103 0.334,-0.133 0.3555,-0.19 0.377,-0.247 0.395,-0.323 Z"
         id="path231"
         inkscape:connector-curvature="0"
         style="fill:#000000;stroke:none;paint-order:stroke fill markers" />
    </g>
  </g>
  <g
     transform="matrix(14.56661,0,0,14.56661,-30.315218,-13.274148)"
     id="g233">
    <g
       transform="translate(25.894737,14.220761)"
       id="g235">
      <path
         d="m 0.217,-0.397 0,0.276 q 0,0.087 0.058,0.087 0.024,0 0.042,-0.0225 0.018,-0.0225 0.018,-0.0695 l 0,-0.051 0.047,0 0,0.053 q 0,0.056 -0.0325,0.093 -0.0325,0.037 -0.0885,0.037 -0.158,0 -0.158,-0.129 l 0,-0.274 -0.082,0 0,-0.036 Q 0.091,-0.435 0.13,-0.4945 0.169,-0.554 0.17,-0.635 l 0.047,0 0,0.191 0.146,0 0,0.047 -0.146,0 z"
         id="path237"
         inkscape:connector-curvature="0"
         style="fill:#cc66ff;stroke:none;paint-order:stroke fill markers" />
    </g>
    <g
       transform="translate(26.341957,14.220761)"
       id="g239">
      <path
         d="M 0.374,-0.077 Q 0.331,0.006 0.225,0.006 0.195,0.006 0.165,0.0015 0.135,-0.003 0.103,-0.0145 0.071,-0.026 0.0515,-0.05 0.032,-0.074 0.032,-0.108 q 0,-0.143 0.325,-0.157 l 0,-0.034 q 0,-0.118 -0.11,-0.118 -0.039,0 -0.072,0.007 0.022,0.015 0.022,0.049 0,0.03 -0.019,0.0465 -0.019,0.0165 -0.044,0.0165 -0.023,0 -0.0425,-0.0165 Q 0.072,-0.331 0.072,-0.361 q 0,-0.092 0.179,-0.092 0.108,0 0.164,0.042 0.056,0.042 0.056,0.112 l 0,0.215 q 0,0.014 0.002,0.02 0.002,0.006 0.016,0.0115 0.014,0.0055 0.043,0.0055 0.009,0 0.013,0.001 0.004,0.001 0.0085,0.006 0.0045,0.005 0.0045,0.016 0,0.011 -0.0045,0.0165 Q 0.549,-0.002 0.5435,-0.001 0.538,0 0.526,0 L 0.478,0 Q 0.441,0 0.418,-0.007 0.395,-0.014 0.3865,-0.028 0.378,-0.042 0.376,-0.0515 0.374,-0.061 0.374,-0.077 M 0.357,-0.234 Q 0.335,-0.233 0.3155,-0.2305 0.296,-0.228 0.263,-0.2195 0.23,-0.211 0.207,-0.199 0.184,-0.187 0.1665,-0.1635 0.149,-0.14 0.149,-0.109 q 0,0.033 0.0265,0.056 0.0265,0.023 0.0645,0.023 0.013,0 0.0295,-0.004 0.0165,-0.004 0.038,-0.014 0.0215,-0.01 0.0355,-0.034 0.014,-0.024 0.014,-0.057 l 0,-0.095 z"
         id="path241"
         inkscape:connector-curvature="0"
         style="fill:#cc66ff;stroke:none;paint-order:stroke fill markers" />
    </g>
    <g
       transform="translate(26.900981,14.220761)"
       id="g243">
      <path
         d="m 0.045,-0.047 0.069,0 0,-0.309 q 0,-0.028 -0.0105,-0.0335 Q 0.093,-0.395 0.045,-0.395 l 0,-0.047 0.172,-0.008 0,0.108 q 0.055,-0.108 0.175,-0.108 0.077,0 0.1155,0.0335 0.0385,0.0335 0.0385,0.1105 l 0,0.259 0.069,0 0,0.047 Q 0.531,-0.003 0.489,-0.003 0.447,-0.003 0.363,0 l 0,-0.047 0.069,0 0,-0.27 q 0,-0.054 -0.014,-0.0755 -0.014,-0.0215 -0.041,-0.0215 -0.055,0 -0.102,0.0415 -0.047,0.0415 -0.047,0.1165 l 0,0.209 0.069,0 0,0.047 Q 0.213,-0.003 0.171,-0.003 0.129,-0.003 0.045,0 l 0,-0.047 z"
         id="path245"
         inkscape:connector-curvature="0"
         style="fill:#cc66ff;stroke:none;paint-order:stroke fill markers" />
    </g>
    <g
       transform="translate(27.706534,14.220761)"
       id="g247">
      <path
         d="m 0.547,-0.49 q 0,0.071 -0.027,0.1725 Q 0.493,-0.216 0.436,-0.133 0.388,-0.061 0.3275,-0.0265 0.267,0.008 0.212,0.008 0.14,0.008 0.093,-0.0455 0.046,-0.099 0.046,-0.203 0.046,-0.267 0.0685,-0.3565 0.091,-0.446 0.128,-0.514 0.181,-0.61 0.249,-0.656 q 0.068,-0.046 0.133,-0.046 0.026,0 0.052,0.009 0.026,0.009 0.053,0.0305 0.027,0.0215 0.0435,0.066 Q 0.547,-0.552 0.547,-0.49 m -0.349,0.119 0.209,0 q 0.033,-0.126 0.033,-0.192 0,-0.103 -0.06,-0.103 -0.059,0 -0.112,0.094 -0.037,0.064 -0.07,0.201 m 0.197,0.048 -0.209,0 q -0.033,0.129 -0.033,0.193 0,0.04 0.012,0.067 0.016,0.035 0.049,0.035 0.013,0 0.0265,-0.0045 Q 0.254,-0.037 0.275,-0.055 0.296,-0.073 0.315,-0.103 0.334,-0.133 0.3555,-0.19 0.377,-0.247 0.395,-0.323 Z"
         id="path249"
         inkscape:connector-curvature="0"
         style="fill:#cc66ff;stroke:none;paint-order:stroke fill markers" />
    </g>
  </g>
  <g
     transform="matrix(14.56661,0,0,14.56661,-30.315218,-13.274148)"
     id="g251">
    <g
       transform="translate(17.947368,5.9576029)"
       id="g253">
      <path
         d="m 0.36,-0.407 q -0.026,-0.006 -0.065,-0.006 -0.037,0 -0.063,0.015 -0.026,0.015 -0.0385,0.0335 -0.0125,0.0185 -0.019,0.049 -0.0065,0.0305 -0.0075,0.047 -0.001,0.0165 -0.001,0.0415 0,0.193 0.139,0.193 0.091,0 0.125,-0.082 0.004,-0.01 0.0075,-0.0125 0.0035,-0.0025 0.0165,-0.0025 0.024,0 0.024,0.014 0,0.006 -0.008,0.0225 -0.008,0.0165 -0.0265,0.041 -0.0185,0.0245 -0.06,0.042 Q 0.342,0.006 0.286,0.006 0.172,0.006 0.105,-0.0575 0.038,-0.121 0.038,-0.222 q 0,-0.096 0.0635,-0.1635 0.0635,-0.0675 0.1895,-0.0675 0.174,0 0.174,0.092 0,0.03 -0.019,0.0465 -0.019,0.0165 -0.044,0.0165 -0.023,0 -0.0425,-0.0165 Q 0.34,-0.331 0.34,-0.361 q 0,-0.028 0.02,-0.046 z"
         id="path255"
         inkscape:connector-curvature="0"
         style="fill:#00cc00;stroke:none;paint-order:stroke fill markers" />
    </g>
    <g
       transform="translate(18.458476,5.9576029)"
       id="g257">
      <path
         d="m 0.542,-0.218 q 0,0.097 -0.067,0.1605 Q 0.408,0.006 0.287,0.006 0.166,0.006 0.099,-0.0575 0.032,-0.121 0.032,-0.218 q 0,-0.103 0.0675,-0.169 0.0675,-0.066 0.1875,-0.066 0.119,0 0.187,0.066 0.068,0.066 0.068,0.169 m -0.3085,0.1765 q 0,0 0.01125,0.00375 Q 0.256,-0.034 0.287,-0.034 q 0.031,0 0.0535,-0.0075 Q 0.363,-0.049 0.3765,-0.066 0.39,-0.083 0.398,-0.098 q 0.008,-0.015 0.0115,-0.0425 0.0035,-0.0275 0.004,-0.043 5e-4,-0.0155 5e-4,-0.0455 0,-0.103 -0.021,-0.137 -0.032,-0.051 -0.106,-0.051 -0.08,0 -0.11,0.058 -0.017,0.034 -0.017,0.13 0,0.03 5e-4,0.0455 5e-4,0.0155 0.004,0.043 0.0035,0.0275 0.0115,0.0425 0.008,0.015 0.0215,0.032 0.0135,0.017 0.036,0.0245 z"
         id="path259"
         inkscape:connector-curvature="0"
         style="fill:#00cc00;stroke:none;paint-order:stroke fill markers" />
    </g>
    <g
       transform="translate(19.033473,5.9576029)"
       id="g261">
      <path
         d="m 0.217,-0.397 0,0.276 q 0,0.087 0.058,0.087 0.024,0 0.042,-0.0225 0.018,-0.0225 0.018,-0.0695 l 0,-0.051 0.047,0 0,0.053 q 0,0.056 -0.0325,0.093 -0.0325,0.037 -0.0885,0.037 -0.158,0 -0.158,-0.129 l 0,-0.274 -0.082,0 0,-0.036 Q 0.091,-0.435 0.13,-0.4945 0.169,-0.554 0.17,-0.635 l 0.047,0 0,0.191 0.146,0 0,0.047 -0.146,0 z"
         id="path263"
         inkscape:connector-curvature="0"
         style="fill:#00cc00;stroke:none;paint-order:stroke fill markers" />
    </g>
    <g
       transform="translate(19.647361,5.9576029)"
       id="g265">
      <path
         d="m 0.547,-0.49 q 0,0.071 -0.027,0.1725 Q 0.493,-0.216 0.436,-0.133 0.388,-0.061 0.3275,-0.0265 0.267,0.008 0.212,0.008 0.14,0.008 0.093,-0.0455 0.046,-0.099 0.046,-0.203 0.046,-0.267 0.0685,-0.3565 0.091,-0.446 0.128,-0.514 0.181,-0.61 0.249,-0.656 q 0.068,-0.046 0.133,-0.046 0.026,0 0.052,0.009 0.026,0.009 0.053,0.0305 0.027,0.0215 0.0435,0.066 Q 0.547,-0.552 0.547,-0.49 m -0.349,0.119 0.209,0 q 0.033,-0.126 0.033,-0.192 0,-0.103 -0.06,-0.103 -0.059,0 -0.112,0.094 -0.037,0.064 -0.07,0.201 m 0.197,0.048 -0.209,0 q -0.033,0.129 -0.033,0.193 0,0.04 0.012,0.067 0.016,0.035 0.049,0.035 0.013,0 0.0265,-0.0045 Q 0.254,-0.037 0.275,-0.055 0.296,-0.073 0.315,-0.103 0.334,-0.133 0.3555,-0.19 0.377,-0.247 0.395,-0.323 Z"
         id="path267"
         inkscape:connector-curvature="0"
         style="fill:#00cc00;stroke:none;paint-order:stroke fill markers" />
    </g>
  </g>
  <text
     font-size="16px"
     font-style="normal"
     font-weight="bold"
     text-decoration="normal"
     x="8.7846212"
     y="94.058777"
     dominant-baseline="alphabetic"
     id="text269"
     style="font-style:normal;font-weight:bold;font-size:12.26661873px;font-family:geogebra-sans-serif, sans-serif;text-anchor:start;fill:#000000;fill-opacity:1;stroke:none">Unit circle</text>
</svg>
