<?xml version="1.0" encoding="utf-8"?>
<!-- Generator: Adobe Illustrator 23.0.3, SVG Export Plug-In . SVG Version: 6.00 Build 0)  -->
<svg version="1.1" id="Layer_1" xmlns="http://www.w3.org/2000/svg" xmlns:xlink="http://www.w3.org/1999/xlink" x="0px" y="0px"
	 width="450px" height="450px" viewBox="0 0 450 450" style="enable-background:new 0 0 450 450;" xml:space="preserve">
<style type="text/css">
	.st0{fill:none;stroke:#1ABC9C;stroke-width:3;stroke-linecap:round;stroke-linejoin:round;}
	.st1{fill:none;stroke:#424548;}
	.st2{fill:none;stroke:#34495E;stroke-width:0.75;stroke-miterlimit:10;}
	.st3{fill:none;stroke:#0875BE;stroke-miterlimit:10;}
	.st4{fill:#424548;}
	.st5{fill:#34495E;}
	.st6{fill:none;stroke:#E74C3C;stroke-width:2;stroke-miterlimit:10;}
	.st7{fill:none;stroke:#34495E;stroke-width:2;stroke-miterlimit:10;}
	.st8{fill:none;stroke:#FD7B33;stroke-width:2;stroke-miterlimit:10;}
	.st9{fill:none;stroke:#34495E;stroke-width:2;stroke-linecap:round;stroke-miterlimit:10;stroke-dasharray:3,6;}
	.st10{fill:none;stroke:#7547D8;stroke-width:2;stroke-miterlimit:10;}
	.st11{fill:#34495E;stroke:#34495E;stroke-width:0.75;stroke-miterlimit:10;}
	.st12{fill:#7547D8;}
	.st13{fill:#E74C3C;}
	.st14{fill:#0875BE;}
	.st15{fill:none;stroke:#FD7B33;stroke-width:2;stroke-linecap:round;stroke-miterlimit:10;stroke-dasharray:3,6;}
</style>
<circle class="st0" cx="224.8" cy="224.2" r="149.3"/>
<title>unit-circle-with-trig</title>
<path class="st1" d="M224.8,4.4V444"/>
<path class="st1" d="M5.6,224.8h439.5"/>
<rect x="313.2" y="218.1" class="st2" width="6.6" height="6.6"/>
<path class="st3" d="M241.1,204.5c6.1,5,9.6,12.5,9.6,20.4"/>
<path class="st4" d="M11.8,219.1l-11.2,5.6l11.2,5.6V219.1z"/>
<path class="st4" d="M438.9,219.1l11.2,5.6l-11.2,5.6V219.1z"/>
<path class="st4" d="M219.1,437.7l5.6,11.3l5.6-11.2L219.1,437.7z"/>
<path class="st4" d="M219.1,11.6l5.6-11.2l5.6,11.2H219.1z"/>
<g>
	<path d="M431.1,211.4c0.2,0.2,0.4,0.4,0.5,0.7c0.2,0.4,0.3,0.8,0.4,1.2l0.6-0.9c0.2-0.2,0.3-0.4,0.5-0.6c0.2-0.2,0.4-0.3,0.6-0.4
		c0.1,0,0.2-0.1,0.4-0.1c0.2,0,0.3,0,0.5,0.1c0.1,0.1,0.2,0.2,0.2,0.4c0,0.1,0,0.2-0.1,0.3c-0.1,0.1-0.3,0.2-0.4,0.2
		c-0.1,0-0.2,0-0.3-0.1c-0.1-0.1-0.3-0.1-0.4-0.1c-0.1,0-0.3,0.1-0.4,0.2c-0.4,0.4-0.7,0.8-1,1.3l0.5,2.3c0,0.2,0.1,0.4,0.2,0.6
		c0,0.1,0.1,0.1,0.2,0.1c0.1,0,0.2-0.1,0.3-0.2c0.3-0.2,0.5-0.5,0.6-0.8l0.2,0.1c-0.3,0.5-0.6,0.9-1,1.3c-0.2,0.2-0.4,0.3-0.6,0.3
		c-0.3,0-0.5-0.2-0.6-0.4c-0.3-0.7-0.4-1.5-0.6-2.2c-0.4,0.8-1,1.6-1.6,2.3c-0.2,0.2-0.5,0.3-0.8,0.3c-0.2,0-0.4-0.1-0.5-0.2
		c-0.1-0.1-0.2-0.2-0.2-0.4c0-0.3,0.2-0.5,0.5-0.5c0,0,0,0,0,0c0.2,0,0.3,0.1,0.4,0.2c0.1,0.1,0.2,0.1,0.3,0.1
		c0.1,0,0.1-0.1,0.2-0.1c0.3-0.3,0.6-0.7,0.8-1.1c0.3-0.4,0.5-0.8,0.7-1.2c-0.3-1.1-0.4-1.6-0.4-1.7c-0.1-0.2-0.2-0.4-0.4-0.6
		c-0.2-0.1-0.5-0.2-0.7-0.2h-0.4v-0.2L431.1,211.4z"/>
</g>
<g>
	<path d="M385.9,237.8c-0.3,0-0.6,0-0.9,0h-2.7c-0.3,0-0.6,0-0.9,0v-0.4h0.5c0.7,0,1-0.1,1.1-0.3c0-0.1,0-0.2,0-0.4v-7.1
		c-0.6,0.2-1.2,0.4-1.8,0.4v-0.4c0.9,0.1,1.8-0.3,2.5-0.9h0.1c0.1,0,0.2,0,0.2,0.1c0,0.1,0,0.2,0,0.3v7.8c0,0.1,0,0.2,0.1,0.3
		c0.1,0.1,0.3,0.2,0.8,0.3h0.9L385.9,237.8z"/>
</g>
<g>
	<path d="M237.9,13.7c0.1,0.2,0.2,0.5,0.3,0.7c0.1,0.4,0.2,0.9,0.2,1.3l0.3,3.2c0.3-0.3,0.6-0.8,1.1-1.5c0.2-0.3,0.5-0.8,0.9-1.4
		c0.2-0.2,0.3-0.5,0.4-0.7c0-0.1,0-0.1,0-0.2c0,0,0-0.1-0.1-0.1c-0.1,0-0.2-0.1-0.2-0.1c-0.1,0-0.2-0.1-0.3-0.2
		c-0.1-0.1-0.1-0.2-0.1-0.4c0-0.2,0-0.3,0.2-0.4c0.1-0.1,0.2-0.2,0.4-0.2c0.2,0,0.4,0.1,0.5,0.2c0.1,0.2,0.2,0.4,0.2,0.7
		c0,0.4-0.1,0.8-0.4,1.2c-0.4,0.7-0.9,1.4-1.4,2c-0.7,0.9-1.5,1.9-2.4,3c-0.4,0.5-0.9,1-1.4,1.5c-0.2,0.2-0.5,0.3-0.8,0.3
		c-0.1,0-0.3-0.1-0.4-0.1c-0.1-0.1-0.2-0.2-0.1-0.4c0-0.2,0.1-0.3,0.2-0.5c0.1-0.1,0.3-0.2,0.5-0.2c0.1,0,0.1,0,0.2,0.1
		c0.1,0.1,0.1,0.1,0.1,0.2c0,0.1,0.1,0.1,0.1,0.2c0,0,0.1,0,0.1,0c0.1,0,0.1,0,0.1-0.1c0.3-0.2,0.6-0.4,0.8-0.7
		c0.3-0.3,0.6-0.7,0.9-1.1l-0.4-4.2c0-0.4-0.1-0.9-0.3-1.3c-0.2-0.2-0.4-0.2-0.6-0.2c-0.2,0-0.3,0-0.5,0l0-0.2L237.9,13.7z"/>
</g>
<g>
	<path d="M221.2,71.1c-0.3,0-0.6,0-0.9,0h-2.7c-0.3,0-0.6,0-0.9,0v-0.4h0.5c0.7,0,1.1-0.1,1.1-0.3c0-0.1,0.1-0.2,0.1-0.3v-7.1
		c-0.6,0.2-1.2,0.4-1.8,0.3v-0.4c0.9,0.1,1.8-0.2,2.5-0.9h0.1c0.1,0,0.2,0,0.2,0.1c0,0.1,0,0.2,0,0.3v7.8c0,0.1,0,0.2,0,0.3
		c0.1,0.1,0.3,0.2,0.8,0.3h0.9L221.2,71.1z"/>
</g>
<g>
	<path class="st5" d="M268.5,164.4c-0.3,0-0.6,0-0.9,0H265c-0.3,0-0.6,0-0.9,0V164h0.5c0.7,0,1-0.1,1.1-0.3c0-0.1,0.1-0.2,0.1-0.4
		v-7.1c-0.6,0.3-1.2,0.4-1.8,0.4v-0.4c0.9,0.1,1.8-0.3,2.5-0.9h0.1c0.1,0,0.2,0,0.2,0.1c0,0.1,0,0.2,0,0.3v7.8c0,0.1,0,0.2,0.1,0.3
		c0.1,0.1,0.3,0.2,0.8,0.3c0.1,0,0.4,0,0.9,0L268.5,164.4z"/>
</g>
<g>
	<path class="st5" d="M218.5,233c0.1,1.1-0.1,2.1-0.5,3.1c-0.4,1-1.3,1.6-2.4,1.6c-1,0-1.8-0.5-2.3-1.4c-0.5-1-0.7-2.2-0.6-3.3
		c-0.1-1.1,0.1-2.1,0.5-3.1c0.4-1,1.3-1.6,2.4-1.6c1,0,1.9,0.6,2.3,1.5C218.4,230.8,218.5,231.9,218.5,233z M217.3,233.7V232
		c0-0.7-0.1-1.5-0.2-2.2c-0.2-0.8-1-1.4-1.8-1.2c-0.6,0.1-1.1,0.6-1.2,1.2c-0.2,0.7-0.3,1.4-0.2,2.2c0,0.2,0,0.4,0,0.8v0.8
		c0,0.8,0,1.6,0.2,2.4c0.3,1,0.8,1.4,1.5,1.4s1.3-0.5,1.5-1.4C217.3,235.3,217.4,234.5,217.3,233.7L217.3,233.7z"/>
</g>
<g>
	<path d="M214.1,383.6c0,0.2-0.1,0.3-0.2,0.3h-7.7c-0.2,0-0.2-0.1-0.2-0.3s0.1-0.3,0.2-0.3h7.7C214,383.3,214.1,383.4,214.1,383.6z"
		/>
	<path d="M220.9,387.4c-0.3,0-0.6,0-0.9,0h-2.6c-0.3,0-0.6,0-0.9,0V387h0.5c0.7,0,1-0.1,1.1-0.3c0-0.1,0.1-0.2,0.1-0.4v-7.1
		c-0.6,0.2-1.2,0.4-1.8,0.4v-0.4c0.9,0.1,1.8-0.2,2.5-0.9h0.1c0.1,0,0.2,0,0.2,0.1c0,0.1,0,0.2,0,0.3v7.8c0,0.1,0,0.2,0.1,0.3
		c0.1,0.1,0.3,0.2,0.8,0.3h0.9L220.9,387.4z"/>
</g>
<g>
	<path d="M64.1,234.3c0,0.2-0.1,0.3-0.2,0.3h-7.7c-0.2,0-0.2-0.1-0.2-0.3s0.1-0.3,0.2-0.3h7.7C64,234,64.1,234.1,64.1,234.3z"/>
	<path d="M70.9,238.1H70h-2.7h-0.9v-0.4h0.5c0.7,0,1-0.1,1.2-0.3c0-0.1,0.1-0.2,0.1-0.4v-7.1c-0.6,0.2-1.2,0.4-1.8,0.4v-0.4
		c0.9,0.1,1.8-0.2,2.5-0.9h0.1c0.1,0,0.2,0,0.2,0.1c0,0.1,0,0.2,0,0.2v7.8c0,0.1,0,0.2,0,0.3c0.1,0.1,0.3,0.2,0.8,0.3h0.9
		L70.9,238.1z"/>
</g>
<line class="st6" x1="224.8" y1="224.5" x2="320" y2="225"/>
<line class="st7" x1="320" y1="109.1" x2="225.5" y2="224.5"/>
<line class="st8" x1="374.5" y1="224.5" x2="374.5" y2="42.5"/>
<line class="st9" x1="409.3" y1="0.3" x2="320" y2="109.1"/>
<line class="st10" x1="320" y1="110" x2="320" y2="225"/>
<circle class="st11" cx="319.5" cy="109.6" r="2.5"/>
<circle class="st11" cx="224.8" cy="224.5" r="2.5"/>
<circle class="st11" cx="320" cy="225" r="2.5"/>
<path class="st12" d="M329.6,176.2c0,0.5-0.2,1-0.6,1.3c-0.4,0.3-0.9,0.4-1.4,0.4c-0.5,0-1-0.2-1.4-0.5c-0.3,0.4-0.5,0.5-0.6,0.5
	s-0.1-0.1-0.1-0.2v-1.9c0-0.1,0-0.2,0.2-0.2s0.1,0.1,0.2,0.2c0.1,0.5,0.3,0.9,0.5,1.3c0.3,0.4,0.7,0.5,1.2,0.5c0.4,0,0.7-0.1,1-0.3
	c0.3-0.2,0.4-0.5,0.4-0.9c0-0.6-0.4-1-1.3-1.1l-0.9-0.2c-0.3-0.1-0.6-0.2-0.8-0.4c-0.6-0.5-0.7-1.4-0.2-2c0.1-0.1,0.2-0.2,0.3-0.3
	c0.4-0.2,0.9-0.4,1.4-0.3c0.4,0,0.8,0.1,1.2,0.4c0.2-0.2,0.4-0.4,0.5-0.4s0.1,0.1,0.1,0.2v1.5c0,0.1,0,0.2-0.2,0.2s-0.1-0.1-0.2-0.2
	v-0.4c-0.1-0.3-0.2-0.6-0.5-0.8c-0.3-0.2-0.6-0.3-0.9-0.3c-0.3,0-0.6,0.1-0.9,0.2c-0.3,0.1-0.5,0.4-0.5,0.8c0,0.3,0.2,0.7,0.5,0.8
	c0.3,0.1,0.7,0.2,1,0.3c0.5,0.1,1,0.3,1.4,0.6C329.4,175.3,329.6,175.8,329.6,176.2z"/>
<path class="st12" d="M332.9,177.8h-1.3h-1.4v-0.4h0.3c0.2,0,0.4,0,0.5-0.1c0.1-0.1,0.2-0.2,0.2-0.5v-3.4c0-0.3-0.1-0.5-0.2-0.6
	c-0.2-0.1-0.5-0.1-0.7-0.1v-0.4l1.7-0.1v4.7c0,0.2,0.1,0.4,0.3,0.4c0.2,0,0.4,0,0.6,0V177.8z M332,170.4c0,0.4-0.3,0.7-0.6,0.7
	c-0.2,0-0.4-0.1-0.5-0.2c-0.1-0.1-0.2-0.3-0.2-0.5c0-0.2,0.1-0.3,0.2-0.5c0.1-0.1,0.3-0.2,0.5-0.2c0.2,0,0.3,0.1,0.5,0.2
	C332,170,332,170.2,332,170.4L332,170.4z"/>
<path class="st12" d="M339.8,177.8h-1.4H337v-0.4h0.3c0.2,0,0.3,0,0.5-0.1c0.1-0.1,0.2-0.3,0.2-0.4v-3.1c0-0.9-0.3-1.3-0.9-1.3
	c-0.5,0-1,0.2-1.2,0.6c-0.3,0.4-0.5,0.9-0.5,1.4v2.4c0,0.1,0,0.2,0.1,0.3c0.1,0.1,0.4,0.2,0.9,0.2v0.4h-1.4h-1.4v-0.4h0.3
	c0.2,0,0.4,0,0.5-0.1c0.1-0.1,0.2-0.2,0.2-0.5v-3.4c0-0.3-0.1-0.6-0.2-0.6c-0.2-0.1-0.5-0.1-0.7-0.1v-0.4l1.8-0.1v1.3
	c0.3-0.8,1-1.3,1.9-1.3c1.1,0,1.7,0.6,1.7,1.9v2.9c0,0.3,0.3,0.4,1,0.4L339.8,177.8z"/>
<path class="st12" d="M343.5,179.8c0,0.1,0,0.1-0.1,0.1c-0.1,0-0.2-0.1-0.3-0.2c-0.8-0.6-1.4-1.4-1.9-2.3c-0.7-1.9-0.7-4,0-5.9
	c0.4-0.9,1.1-1.7,1.9-2.3c0.1-0.1,0.2-0.1,0.3-0.2c0.1,0,0.1,0,0.1,0.1c0,0,0,0,0,0c0,0,0,0.1-0.1,0.2c-2.3,3-2.3,7.3,0,10.3
	C343.4,179.7,343.5,179.8,343.5,179.8z"/>
<path class="st12" d="M348.5,169.5c1.1,0,1.6,0.8,1.6,2.2c0,1-0.2,2.1-0.6,3c-0.3,0.9-0.8,1.7-1.5,2.4c-0.5,0.5-1.1,0.8-1.7,0.8
	c-0.5,0-0.9-0.2-1.2-0.6c-0.3-0.5-0.5-1-0.5-1.6c0-0.6,0.1-1.1,0.3-1.6c0.2-0.7,0.5-1.5,0.8-2.1c0.3-0.7,0.8-1.3,1.3-1.8
	C347.4,169.8,348,169.5,348.5,169.5z M346,173.8c-0.3,0.8-0.5,1.7-0.5,2.6c0,0.3,0.1,0.7,0.2,1c0.2,0.2,0.4,0.4,0.7,0.4
	c0.3,0,0.5-0.1,0.7-0.3c0.3-0.4,0.6-0.8,0.8-1.3c0.4-0.8,0.6-1.5,0.9-2.3L346,173.8z M349,173.5c0.3-0.8,0.4-1.6,0.4-2.4
	c0-0.9-0.2-1.3-0.8-1.3s-0.9,0.3-1.3,1c-0.5,0.9-0.9,1.8-1.2,2.7H349z"/>
<path class="st12" d="M353.4,174.4c0,1-0.2,2.1-0.5,3c-0.4,0.9-1.1,1.7-1.9,2.3c-0.1,0.1-0.2,0.1-0.3,0.2c-0.1,0-0.1,0-0.1-0.1
	s0-0.1,0.1-0.2c2.3-3,2.3-7.3,0-10.3c-0.1-0.1-0.1-0.1-0.1-0.2s0-0.1,0.1-0.1c0.1,0,0.2,0.1,0.3,0.2c0.8,0.6,1.4,1.4,1.9,2.3
	C353.3,172.4,353.5,173.4,353.4,174.4z"/>
<path class="st13" d="M258.6,238.2c0,0.2-0.1,0.3-0.2,0.4c-0.3,0.8-1.1,1.2-1.9,1.2c-0.7,0-1.4-0.3-1.9-0.9c-0.5-0.5-0.8-1.3-0.8-2
	c0-0.7,0.3-1.5,0.8-2c0.8-0.9,2.1-1.2,3.2-0.6c0.4,0.2,0.6,0.6,0.7,1c0,0.3-0.2,0.5-0.4,0.6c0,0-0.1,0-0.1,0c-0.2,0-0.3-0.1-0.4-0.2
	c-0.1-0.1-0.2-0.3-0.2-0.4c0-0.4,0.2-0.6,0.6-0.6c-0.4-0.3-0.9-0.5-1.3-0.5c-0.2,0-0.5,0.1-0.7,0.2c-0.7,0.5-1.1,1.5-1,2.4
	c-0.1,0.9,0.2,1.8,1,2.4c0.2,0.1,0.5,0.2,0.7,0.2c0.4,0,0.8-0.1,1.1-0.4c0.2-0.2,0.4-0.4,0.5-0.7c0.1-0.2,0.2-0.4,0.3-0.4
	S258.6,238.1,258.6,238.2z"/>
<path class="st13" d="M264.8,237c0,0.7-0.3,1.5-0.8,2c-0.5,0.5-1.2,0.8-2,0.8c-0.8,0-1.5-0.3-2-0.8c-0.5-0.5-0.8-1.3-0.8-2
	c0-0.7,0.3-1.5,0.8-2c0.5-0.6,1.2-0.9,2-0.9c0.8,0,1.5,0.3,2,0.9C264.5,235.5,264.8,236.3,264.8,237z M263.7,236.9
	c0-0.6-0.1-1.2-0.3-1.7c-0.4-0.8-1.4-1.1-2.2-0.6c-0.3,0.1-0.5,0.4-0.6,0.6c-0.2,0.5-0.3,1.1-0.3,1.7c0,0.6,0.1,1.2,0.3,1.8
	c0.4,0.8,1.4,1.1,2.2,0.6c0.3-0.2,0.5-0.4,0.7-0.7C263.7,238,263.7,237.4,263.7,236.9L263.7,236.9z"/>
<path class="st13" d="M269.5,238.1c0,0.5-0.2,1-0.6,1.3c-0.4,0.3-0.9,0.5-1.4,0.4c-0.5,0-1-0.2-1.4-0.6c-0.3,0.4-0.5,0.6-0.6,0.6
	s-0.1-0.1-0.1-0.2v-1.9c0-0.1,0-0.2,0.2-0.2s0.1,0.1,0.2,0.2c0.1,0.5,0.3,0.9,0.5,1.3c0.3,0.4,0.7,0.6,1.2,0.5c0.4,0,0.7-0.1,1-0.3
	c0.3-0.2,0.4-0.5,0.4-0.9c0-0.6-0.4-0.9-1.3-1.1l-0.9-0.2c-0.3-0.1-0.6-0.2-0.8-0.4c-0.6-0.5-0.7-1.3-0.2-2c0.1-0.1,0.2-0.2,0.3-0.3
	c0.4-0.2,0.9-0.4,1.4-0.4c0.4,0,0.8,0.1,1.2,0.4c0.2-0.2,0.4-0.4,0.5-0.4s0.1,0.1,0.1,0.2v1.5c0,0.1,0,0.2-0.2,0.2s-0.1-0.1-0.2-0.2
	v-0.4c-0.1-0.3-0.2-0.6-0.5-0.8c-0.3-0.2-0.6-0.3-0.9-0.3c-0.3,0-0.6,0.1-0.9,0.2c-0.3,0.1-0.5,0.4-0.5,0.8c0,0.3,0.2,0.6,0.6,0.8
	c0.3,0.1,0.7,0.2,1,0.3c0.5,0.1,1,0.3,1.4,0.6C269.3,237.2,269.5,237.6,269.5,238.1z"/>
<path class="st13" d="M273.1,241.6c0,0.1,0,0.1-0.1,0.1c0,0,0,0,0,0c0,0-0.1-0.1-0.3-0.2c-0.8-0.6-1.5-1.4-1.9-2.3
	c-0.7-1.9-0.7-4,0-5.9c0.4-0.9,1.1-1.7,1.9-2.3c0.1-0.1,0.2-0.2,0.3-0.2c0.1,0,0.1,0,0.1,0.1c0,0,0,0,0,0c0,0,0,0.1-0.1,0.2
	c-2.3,3-2.3,7.3,0,10.3C273.1,241.5,273.1,241.6,273.1,241.6z"/>
<path class="st13" d="M278.2,231.3c1.1,0,1.6,0.8,1.6,2.2c0,1-0.2,2.1-0.7,3c-0.3,0.9-0.8,1.7-1.5,2.4c-0.5,0.5-1.1,0.8-1.8,0.8
	c-0.5,0-0.9-0.2-1.2-0.6c-0.3-0.5-0.5-1-0.5-1.6c0-0.6,0.1-1.1,0.3-1.7c0.2-0.7,0.5-1.5,0.8-2.1c0.3-0.7,0.8-1.3,1.3-1.8
	C277.1,231.6,277.6,231.4,278.2,231.3z M275.7,235.7c-0.3,0.8-0.5,1.7-0.5,2.6c0,0.3,0.1,0.7,0.2,1c0.2,0.2,0.4,0.4,0.7,0.4
	c0.3,0,0.5-0.1,0.7-0.3c0.3-0.4,0.6-0.8,0.8-1.3c0.4-0.7,0.6-1.5,0.9-2.3L275.7,235.7z M278.7,235.3c0.3-0.8,0.4-1.6,0.4-2.4
	c0-0.9-0.2-1.3-0.8-1.3s-0.9,0.3-1.3,1c-0.5,0.9-0.9,1.8-1.2,2.7L278.7,235.3z"/>
<path class="st13" d="M283.1,236.3c0,1-0.2,2.1-0.6,3c-0.4,0.9-1.1,1.7-1.9,2.3c-0.1,0.1-0.2,0.2-0.3,0.2c-0.1,0-0.1,0-0.1-0.1
	c0,0,0,0,0,0c0,0,0-0.1,0.1-0.2c2.3-3,2.3-7.3,0-10.3c-0.1-0.1-0.1-0.2-0.1-0.2c0-0.1,0-0.1,0.1-0.1c0,0,0,0,0,0
	c0,0,0.1,0.1,0.3,0.2c0.8,0.6,1.4,1.4,1.9,2.3C283,234.3,283.2,235.3,283.1,236.3z"/>
<path class="st13" d="M385.4,137.1c0,0.4-0.1,0.8-0.3,1.1c-0.2,0.4-0.6,0.6-1,0.6c-0.4,0-0.9-0.1-1.2-0.5c-0.3-0.3-0.4-0.8-0.4-1.2
	v-3.4h-1.1v-0.3c0.5,0,1-0.3,1.3-0.9c0.2-0.5,0.4-1,0.4-1.6h0.3v2.3h1.8v0.4h-1.8v3.5c0,0.9,0.3,1.4,0.8,1.4c0.6,0,0.9-0.6,0.9-1.7
	v-0.4h0.3L385.4,137.1z"/>
<path class="st13" d="M391.7,137.6c0,0.3-0.1,0.6-0.3,0.8c-0.2,0.2-0.5,0.4-0.8,0.4c-0.3,0-0.5-0.1-0.7-0.3
	c-0.2-0.2-0.3-0.4-0.3-0.7c-0.1,0.3-0.4,0.6-0.6,0.8c-0.3,0.2-0.6,0.3-1,0.3c-0.5,0-0.9-0.1-1.3-0.3c-0.4-0.2-0.7-0.6-0.7-1
	c0-0.8,0.5-1.4,1.2-1.6c0.7-0.3,1.5-0.4,2.3-0.4V135c0-0.4-0.1-0.8-0.3-1.1c-0.2-0.3-0.6-0.5-1-0.5c-0.5,0-1,0.2-1.4,0.6
	c0.2,0,0.3,0.1,0.5,0.2c0.1,0.1,0.2,0.3,0.2,0.4c0,0.3-0.2,0.6-0.5,0.6c0,0,0,0,0,0c-0.3,0-0.5-0.2-0.6-0.4c0,0,0-0.1,0-0.1
	c0-0.4,0.2-0.9,0.6-1.1c0.4-0.2,0.8-0.4,1.3-0.4c0.6,0,1.3,0.2,1.7,0.7c0.2,0.2,0.3,0.4,0.4,0.7c0,0.3,0.1,0.5,0.1,0.8v2.5
	c0,0.1,0,0.3,0.1,0.4c0.1,0.1,0.2,0.2,0.4,0.2c0.3,0,0.5-0.3,0.5-1v-0.5h0.3L391.7,137.6z M389.6,136.9v-1.3c-0.6,0-1.2,0.2-1.7,0.4
	c-0.5,0.2-0.9,0.8-0.9,1.4c0,0.3,0.1,0.6,0.3,0.8c0.2,0.2,0.5,0.3,0.8,0.3c0.4,0,0.8-0.2,1.1-0.5
	C389.4,137.7,389.6,137.3,389.6,136.9L389.6,136.9z"/>
<path class="st13" d="M398.6,138.7h-1.4h-1.4v-0.4h0.3c0.2,0,0.3,0,0.5-0.1c0.1-0.1,0.2-0.3,0.2-0.4v-3c0-0.9-0.3-1.3-0.9-1.3
	c-0.5,0-1,0.2-1.2,0.6c-0.3,0.4-0.4,0.9-0.4,1.4v2.4c0,0.1,0,0.2,0.1,0.3c0.1,0.1,0.4,0.2,0.9,0.2v0.4h-1.4h-1.4v-0.4h0.3
	c0.2,0,0.4,0,0.5-0.1c0.1-0.1,0.2-0.2,0.2-0.5v-3.4c0-0.3-0.1-0.6-0.3-0.6c-0.2-0.1-0.5-0.1-0.7-0.1v-0.4l1.8-0.1v1.3
	c0.3-0.8,1-1.3,1.9-1.3c1.1,0,1.7,0.6,1.7,1.9v2.9c0,0.3,0.3,0.4,1,0.4L398.6,138.7z"/>
<path class="st13" d="M402.3,140.6c0,0.1,0,0.1-0.1,0.1c0,0,0,0,0,0c0,0-0.1-0.1-0.3-0.2c-0.8-0.6-1.5-1.4-1.9-2.3
	c-0.7-1.9-0.7-4,0-5.9c0.4-0.9,1.1-1.7,1.9-2.3c0.1-0.1,0.2-0.2,0.3-0.2s0.1,0,0.1,0.1s0,0.1-0.1,0.2c-2.3,3-2.3,7.3,0,10.3
	C402.2,140.5,402.3,140.6,402.3,140.6z"/>
<path class="st13" d="M407.4,130.3c1.1,0,1.6,0.8,1.6,2.2c0,1-0.2,2.1-0.7,3c-0.3,0.9-0.8,1.7-1.5,2.4c-0.5,0.5-1.1,0.8-1.8,0.8
	c-0.5,0-0.9-0.2-1.2-0.6c-0.3-0.5-0.5-1-0.5-1.6c0-0.6,0.1-1.1,0.3-1.6c0.2-0.7,0.5-1.5,0.8-2.1c0.3-0.7,0.8-1.3,1.3-1.8
	C406.2,130.6,406.8,130.4,407.4,130.3z M404.8,134.7c-0.3,0.8-0.5,1.7-0.5,2.6c0,0.3,0.1,0.7,0.2,1c0.2,0.2,0.4,0.4,0.7,0.4
	c0.3,0,0.5-0.1,0.7-0.3c0.3-0.4,0.6-0.8,0.8-1.3c0.4-0.7,0.6-1.5,0.9-2.3L404.8,134.7z M407.8,134.3c0.3-0.8,0.4-1.6,0.4-2.4
	c0-0.9-0.2-1.3-0.8-1.3s-0.9,0.3-1.3,1c-0.5,0.9-0.9,1.8-1.2,2.7L407.8,134.3z"/>
<path class="st13" d="M412.2,135.3c0,1-0.2,2.1-0.6,3c-0.4,0.9-1.1,1.7-1.9,2.3c-0.1,0.1-0.2,0.2-0.3,0.2c-0.1,0-0.1,0-0.1-0.1
	c0,0,0,0,0,0c0,0,0-0.1,0.1-0.2c2.3-3,2.3-7.3,0-10.3c-0.1-0.1-0.1-0.2-0.1-0.2s0-0.1,0.1-0.1s0.1,0,0.3,0.2
	c0.8,0.6,1.5,1.4,1.9,2.3C412.1,133.3,412.3,134.3,412.2,135.3z"/>
<path class="st14" d="M255.5,205.3c1.1,0,1.6,0.8,1.6,2.2c0,1-0.2,2.1-0.7,3c-0.3,0.9-0.8,1.7-1.5,2.4c-0.4,0.5-1.1,0.8-1.7,0.8
	c-0.5,0-0.9-0.2-1.2-0.6c-0.3-0.5-0.5-1-0.5-1.6c0-0.6,0.1-1.1,0.3-1.6c0.2-0.7,0.5-1.4,0.8-2.1c0.3-0.7,0.8-1.3,1.3-1.8
	C254.3,205.6,254.9,205.4,255.5,205.3z M252.9,209.7c-0.3,0.8-0.5,1.7-0.5,2.6c0,0.3,0.1,0.7,0.2,1c0.2,0.2,0.4,0.4,0.7,0.4
	c0.3,0,0.5-0.1,0.7-0.3c0.3-0.4,0.6-0.8,0.8-1.3c0.4-0.7,0.6-1.5,0.9-2.3L252.9,209.7z M255.8,209.3c0.3-0.8,0.4-1.6,0.4-2.4
	c0-0.9-0.2-1.3-0.8-1.3s-0.9,0.3-1.3,1c-0.5,0.9-0.9,1.8-1.2,2.7L255.8,209.3z"/>
<line class="st15" x1="374.5" y1="449.5" x2="374.5" y2="-5.5"/>
<circle class="st11" cx="374.6" cy="42.1" r="2.5"/>
<circle class="st11" cx="374.5" cy="224.5" r="2.5"/>
<g>
	<path class="st5" d="M316.6,84.3h5.2c1.4,0,2.4,0.3,3.1,0.9c0.7,0.6,1,1.3,1,2.2c0,0.7-0.2,1.3-0.6,2s-1.1,1.1-1.9,1.5
		c-0.8,0.4-1.8,0.6-2.7,0.6c-0.6,0-1.4-0.1-2.3-0.3l-1.1,3.6c-0.2,0.9-0.4,1.4-0.4,1.7c0,0.2,0.1,0.4,0.3,0.5s0.6,0.2,1.3,0.3
		l-0.1,0.4H313l0.1-0.4c0.7,0,1.2-0.1,1.4-0.4c0.3-0.2,0.6-0.9,0.9-2l2.2-7.5c0.3-0.9,0.4-1.5,0.4-1.8c0-0.2-0.1-0.4-0.3-0.6
		s-0.6-0.2-1.2-0.3L316.6,84.3z M318.4,90.4c0.7,0.2,1.3,0.3,1.8,0.3c0.7,0,1.4-0.1,1.9-0.4c0.6-0.3,1-0.7,1.4-1.3
		c0.3-0.6,0.5-1.2,0.5-1.8c0-0.7-0.2-1.2-0.6-1.6c-0.4-0.4-1-0.6-1.8-0.6c-0.4,0-1,0.1-1.6,0.2L318.4,90.4z"/>
</g>
</svg>
